<svg version="1.1" id="Layer_1" xmlns="http://www.w3.org/2000/svg" xmlns:xlink="http://www.w3.org/1999/xlink" x="0px" y="0px"
	 width="100%" viewBox="0 0 500 500" enable-background="new 0 0 500 500" xml:space="preserve">
<path fill="#FFFFFF" opacity="1.000000" stroke="none" 
	d="
M328.000000,501.000000 
	C218.666687,501.000000 109.833382,501.000000 1.000058,501.000000 
	C1.000039,334.333405 1.000039,167.666794 1.000019,1.000148 
	C167.666565,1.000099 334.333130,1.000099 500.999756,1.000049 
	C500.999847,167.666519 500.999847,334.333038 500.999939,500.999786 
	C443.500000,501.000000 386.000000,501.000000 328.000000,501.000000 
M163.326828,245.808472 
	C163.301071,240.500305 163.275314,235.192154 163.615646,229.184097 
	C163.615646,225.287369 163.615646,221.390625 163.615646,216.694885 
	C162.098816,217.975510 161.124130,218.571274 160.444366,219.406952 
	C152.153503,229.599335 143.502106,239.531326 135.750397,250.120972 
	C126.276001,263.063965 118.710533,277.080536 115.474380,293.085968 
	C112.554741,307.526031 118.883865,320.505310 131.995895,323.415802 
	C139.918152,325.174377 148.615814,325.353149 156.655838,324.159241 
	C165.692749,322.817261 174.381470,319.130554 183.695511,317.089752 
	C201.832047,341.064514 225.877121,354.648560 255.906525,355.791870 
	C307.508606,357.756561 349.451447,317.022064 349.855591,265.370483 
	C350.005310,246.231934 349.898682,227.091370 350.415924,207.980774 
	C350.584808,207.992004 350.753693,208.003235 351.030518,208.809723 
	C353.596954,219.563736 356.163422,230.317764 358.778259,241.274490 
	C362.667603,239.474686 364.388550,237.180634 364.023102,233.245453 
	C363.654602,229.277145 363.643311,225.251923 363.824860,221.267548 
	C363.901245,219.590942 364.438568,217.555862 365.520721,216.375137 
	C368.866425,212.724686 367.765594,211.014740 363.056427,210.405029 
	C363.056427,208.067276 362.890045,205.898071 363.097229,203.765152 
	C363.375824,200.897034 363.037659,197.359802 364.581512,195.355606 
	C367.450195,191.631577 368.393860,189.430969 362.981934,188.537888 
	C362.688843,182.891678 362.154510,177.734634 362.286285,172.594696 
	C362.338623,170.552307 363.370728,168.048935 364.812012,166.615158 
	C370.118500,161.336380 376.200958,156.788925 381.150696,151.219131 
	C383.947113,148.072372 385.822235,143.636307 386.800201,139.472778 
	C387.833649,135.072998 384.405548,131.641815 380.059387,132.639023 
	C375.713470,133.636215 371.174133,135.401642 367.667267,138.073944 
	C362.137939,142.287369 357.402374,147.542145 352.328613,152.353775 
	C347.561218,156.874817 343.945801,155.981705 340.572174,150.530792 
	C335.777679,142.784042 331.215820,134.601242 325.013336,128.067886 
	C296.303223,97.826195 251.130035,91.184196 214.570374,111.705673 
	C185.900360,127.798561 167.785065,152.477875 166.513107,185.291199 
	C165.178406,219.722977 162.604416,254.494705 168.233643,288.982697 
	C166.077225,289.024719 163.915009,289.188446 161.765472,289.086029 
	C155.187485,288.772614 152.786392,285.527039 154.849106,279.228241 
	C156.024155,275.640106 157.315277,271.809753 159.605850,268.923035 
	C165.071640,262.034790 164.072922,254.432236 163.326828,245.808472 
M136.879242,372.445404 
	C127.275696,368.448334 117.313271,370.771118 107.427261,370.086884 
	C107.427261,378.790131 107.427261,386.796753 107.427261,394.694946 
	C110.958282,394.694946 114.050323,394.694946 117.323563,394.694946 
	C117.551460,392.474396 117.750435,390.535645 118.094704,387.181244 
	C121.876183,388.219604 127.497467,388.261444 128.317093,390.266296 
	C130.904373,396.594971 135.269257,394.908813 140.675278,394.752045 
	C139.534836,391.499878 138.558075,388.714447 137.542862,385.819397 
	C142.109833,380.583801 142.155594,377.446930 136.879242,372.445404 
M387.855713,379.538818 
	C387.855713,384.618286 387.855713,389.697754 387.855713,394.792236 
	C391.683746,394.792236 394.643097,394.792236 397.602417,394.792236 
	C397.343689,394.470123 397.084930,394.148010 396.826172,393.825897 
	C399.147400,391.415222 401.468628,389.004578 404.087036,386.285248 
	C410.834320,393.425018 417.841858,397.293549 427.258331,394.275848 
	C421.775116,390.296417 416.484955,386.457092 410.906128,382.408234 
	C416.725220,378.335541 422.023804,374.627167 427.372284,370.883850 
	C414.856720,366.664612 407.550323,375.886292 397.900208,381.474823 
	C397.900208,377.163666 397.900208,373.804810 397.900208,370.427734 
	C394.298279,370.427734 391.375244,370.427734 387.855469,370.427734 
	C387.855469,373.329407 387.855469,375.942352 387.855713,379.538818 
M221.125717,393.143860 
	C221.598938,393.727509 222.066803,394.815186 222.546188,394.820282 
	C231.956329,394.920471 241.367813,394.894775 251.055023,394.894775 
	C250.931290,392.608154 250.844696,391.008179 250.732071,388.927124 
	C245.472061,388.927124 240.508087,389.064850 235.561813,388.830017 
	C234.329102,388.771484 233.153473,387.510590 231.951599,386.802307 
	C233.099457,386.214142 234.221741,385.187531 235.399887,385.118805 
	C239.151306,384.900116 242.923492,385.037811 246.438217,385.037811 
	C247.526871,381.309540 246.630981,379.859528 243.322357,380.075165 
	C240.669647,380.248047 237.977905,380.290344 235.341110,380.021484 
	C234.191406,379.904266 233.135803,378.864044 232.037476,378.242981 
	C233.103668,377.735809 234.156326,376.827362 235.238403,376.790833 
	C239.993378,376.630219 244.756851,376.721497 249.511993,376.721497 
	C249.511993,374.152100 249.511993,372.401703 249.511993,370.480560 
	C239.974335,370.480560 230.763153,370.480560 221.090759,370.480560 
	C221.090759,377.956024 221.090759,385.081940 221.125717,393.143860 
M176.296326,385.200226 
	C174.063263,381.696930 171.815887,378.202698 169.600204,374.688446 
	C165.362900,367.967651 158.351746,368.026062 154.106964,374.803070 
	C152.078293,378.041962 149.960678,381.225006 147.911896,384.451477 
	C145.837906,387.717621 143.799164,391.006104 141.125198,395.274078 
	C145.628708,394.950531 150.380508,395.893188 151.517624,394.283051 
	C154.734909,389.727478 158.810364,391.261292 162.689087,391.049805 
	C164.979019,390.924927 168.677216,390.451233 169.366089,391.582001 
	C172.696640,397.048676 177.293030,394.520782 182.229996,394.838715 
	C180.125961,391.398315 178.414978,388.600647 176.296326,385.200226 
M332.739624,370.141785 
	C330.863251,371.150879 328.402344,371.713287 327.223785,373.255554 
	C324.109497,377.330963 321.516327,381.809357 318.783722,386.169922 
	C317.092682,388.868347 315.526001,391.644653 313.369415,395.288300 
	C317.673401,394.953979 322.398956,395.872467 323.549561,394.252258 
	C326.775635,389.709503 330.855560,391.286621 334.720154,391.052795 
	C337.004578,390.914551 340.711700,390.464233 341.386932,391.589600 
	C344.701447,397.113708 349.318024,394.459564 354.347931,394.875336 
	C349.743256,387.589905 345.435974,381.128662 341.525299,374.435730 
	C339.621368,371.177246 337.409454,369.392242 332.739624,370.141785 
M199.681671,385.534088 
	C198.288666,382.515686 196.912857,379.489166 195.499222,376.480469 
	C192.161209,369.376007 190.446457,368.651550 182.337006,371.068542 
	C186.415833,378.359161 190.413849,385.625549 194.573135,392.798462 
	C195.137863,393.772369 196.453491,394.794586 197.518250,394.911346 
	C202.213791,395.426178 206.590790,395.624023 208.731964,389.659515 
	C210.282455,385.340454 213.194656,381.514557 215.457214,377.445160 
	C216.681213,375.243652 217.816437,372.992737 219.150436,370.463135 
	C209.030334,369.675323 209.026855,369.673676 205.254852,377.692383 
	C204.193008,379.949738 203.243393,382.265717 202.062393,384.457855 
	C201.673004,385.180664 200.717590,385.598541 199.681671,385.534088 
M101.898270,370.125061 
	C92.826530,370.125061 83.754791,370.125061 74.178101,370.125061 
	C74.375931,372.443329 74.077881,375.201813 74.724449,375.444611 
	C77.516113,376.492828 80.584404,376.804321 84.126495,377.496124 
	C84.126495,383.132202 84.126495,388.855042 84.126495,394.667450 
	C87.926071,394.667450 91.137604,394.667450 94.957642,394.667450 
	C94.957642,388.607758 94.957642,382.886047 94.957642,376.728607 
	C97.206062,376.728607 98.865494,376.913422 100.460060,376.671204 
	C101.783310,376.470215 104.123672,375.747528 104.115791,375.288574 
	C104.086433,373.579681 103.274612,371.884216 101.898270,370.125061 
M303.594421,386.450317 
	C303.594971,377.263367 303.595398,377.267914 311.794128,376.513977 
	C312.088104,376.486938 312.357208,376.189453 312.749207,375.950043 
	C312.749207,374.247223 312.749207,372.480652 312.749207,370.523315 
	C302.808136,370.523315 293.124512,370.523315 283.426270,370.523315 
	C283.426270,372.671234 283.426270,374.423157 283.426270,376.425171 
	C286.628632,376.624237 289.538544,376.805115 292.980713,377.019073 
	C292.980713,383.043091 292.980713,388.781647 292.980713,394.656097 
	C296.744507,394.656097 299.942383,394.656097 303.593506,394.656097 
	C303.593506,392.007996 303.593506,389.709534 303.594421,386.450317 
M369.507904,395.015869 
	C374.758942,395.015869 380.009949,395.015869 385.298340,395.015869 
	C385.298340,392.633209 385.298340,391.041382 385.298340,388.827576 
	C379.111908,388.827576 373.220215,388.827576 366.768616,388.827576 
	C366.768616,382.308502 366.768616,376.404572 366.768616,370.568665 
	C362.972046,370.568665 359.765167,370.568665 356.641205,370.568665 
	C356.641205,378.920135 356.641205,386.819305 356.641205,395.015869 
	C360.872955,395.015869 364.693024,395.015869 369.507904,395.015869 
M254.002213,392.251617 
	C254.840897,393.164368 255.661911,394.850616 256.520966,394.870270 
	C265.138123,395.066986 273.761566,394.989899 282.563660,394.989899 
	C282.563660,392.760040 282.563660,391.055328 282.563660,388.745361 
	C276.483185,388.745361 270.743286,388.745361 264.639343,388.745361 
	C264.639343,384.995880 264.639374,381.844604 264.639313,378.693359 
	C264.639160,369.632935 264.638672,369.625885 255.665512,370.237671 
	C255.215118,370.268402 254.785370,370.601746 253.996857,370.947144 
	C253.996857,377.680298 253.996857,384.487335 254.002213,392.251617 
M143.934326,423.207397 
	C143.839081,423.343964 143.763321,423.502808 143.641632,423.609131 
	C143.562454,423.678375 143.327072,423.718018 143.313110,423.691437 
	C142.099365,421.379089 140.900391,419.058929 139.700378,416.739349 
	C139.114731,416.996979 138.529068,417.254608 137.943420,417.512207 
	C138.604431,419.829498 139.127411,422.198364 139.968658,424.448242 
	C140.685013,426.364136 141.767792,428.143066 142.688461,429.982574 
	C143.829987,428.179382 144.956314,426.366211 146.125793,424.581329 
	C146.360397,424.223297 146.759247,423.972870 147.415695,423.363281 
	C148.126129,425.340912 148.469940,427.178406 149.441605,428.580933 
	C149.845123,429.163391 152.481918,429.139526 152.588852,428.843811 
	C153.935608,425.119324 155.005249,421.294647 156.145721,417.495575 
	C155.556824,417.266510 154.967941,417.037476 154.379059,416.808411 
	C153.285873,418.925354 152.192688,421.042297 150.917557,423.511597 
	C149.681717,421.133331 148.575958,419.005402 146.889633,415.760223 
	C145.618408,418.896637 144.890869,420.691650 143.934326,423.207397 
M199.903656,417.202728 
	C198.271133,417.202728 196.638611,417.202728 194.495850,417.202728 
	C194.656830,421.707397 193.441757,426.021759 195.238693,430.024780 
	C195.691055,430.028717 196.143402,430.032684 196.595749,430.036652 
	C197.107285,428.691284 197.618805,427.345917 198.156631,425.931366 
	C200.083344,427.586212 201.670532,428.949432 202.788406,429.909576 
	C203.065048,426.795044 203.677826,424.301544 203.360641,421.932556 
	C203.145966,420.329285 201.623093,418.901184 199.903656,417.202728 
M248.119827,420.766663 
	C248.118256,428.746857 248.118256,428.746857 250.672272,429.809601 
	C250.958984,428.323547 251.237305,426.880920 251.561401,425.201019 
	C253.597229,427.216614 255.250534,428.853455 256.773132,430.360931 
	C256.963531,426.875946 257.509979,424.196381 257.101013,421.671570 
	C256.847107,420.103943 255.368790,417.872681 254.040680,417.541656 
	C252.015381,417.036926 248.485931,415.193329 248.119827,420.766663 
M341.188049,429.954132 
	C342.063934,428.524597 342.939819,427.095062 343.751648,425.770111 
	C345.422272,427.343475 347.108215,428.931244 348.527679,430.268005 
	C348.703735,426.894135 349.156403,424.304443 348.850250,421.807831 
	C348.666260,420.307678 347.613373,418.247009 346.388184,417.700989 
	C344.637421,416.920685 342.371338,417.296600 339.809814,417.149017 
	C340.023224,421.808075 340.203888,425.751648 341.188049,429.954132 
M251.971878,447.605774 
	C254.329926,449.813843 256.687958,452.021912 259.354218,454.518585 
	C259.354218,449.523590 259.354218,445.377350 259.354218,441.231110 
	C258.959198,441.213043 258.564148,441.194977 258.169128,441.176910 
	C257.763794,443.349823 257.358490,445.522705 256.700195,449.051788 
	C254.133530,445.553223 252.289413,443.039520 250.445282,440.525818 
	C250.143982,440.893280 249.842697,441.260742 249.541397,441.628174 
	C249.541397,445.719666 249.541397,449.811127 249.541397,453.902618 
	C250.018906,453.943909 250.496414,453.985199 250.973923,454.026489 
	C251.202011,452.118408 251.430084,450.210297 251.971878,447.605774 
M239.493423,446.087372 
	C238.700500,446.188477 237.535690,446.673065 237.177597,446.325806 
	C235.416702,444.618164 233.870010,442.689636 231.478210,439.961395 
	C231.478210,445.663300 231.478210,449.757874 231.478210,453.852478 
	C231.946182,453.924530 232.414139,453.996582 232.882111,454.068634 
	C233.282257,451.859528 233.682419,449.650452 234.141800,447.114410 
	C236.672928,449.835968 238.779449,452.101013 241.316010,454.828400 
	C241.316010,449.505890 241.316010,445.378418 241.316010,441.250916 
	C240.873611,441.246552 240.431213,441.242188 239.988815,441.237823 
	C239.829773,442.590881 239.670731,443.943970 239.493423,446.087372 
M224.952820,448.333832 
	C224.186996,442.943665 221.286148,440.304047 217.037247,441.131104 
	C213.438950,441.831451 210.813858,445.349213 212.156250,448.937012 
	C212.927826,450.999207 215.286591,453.234741 217.387711,453.862091 
	C221.028366,454.949066 223.721939,452.861603 224.952820,448.333832 
M173.055878,421.691376 
	C172.924652,420.185944 172.793442,418.680542 172.662216,417.175110 
	C172.155533,417.104889 171.648865,417.034668 171.142181,416.964447 
	C170.547134,418.730438 169.952087,420.496460 169.500488,421.836700 
	C163.339615,425.316650 166.435577,417.158966 162.469116,417.163208 
	C162.469116,421.483978 162.469116,425.672272 162.469116,429.860596 
	C162.902527,429.974243 163.335922,430.087860 163.769333,430.201508 
	C164.403320,428.492279 165.037308,426.783051 165.698151,425.001434 
	C166.953964,425.001434 168.228455,425.001434 169.265762,425.001434 
	C170.061111,426.925934 170.743622,428.577393 171.426147,430.228851 
	C171.969437,430.109528 172.512726,429.990173 173.056015,429.870850 
	C173.056015,427.450104 173.056015,425.029327 173.055878,421.691376 
M270.912811,418.619904 
	C269.637238,418.521545 267.430023,417.979156 267.232147,418.394379 
	C265.511108,422.005554 264.150421,425.788422 262.298004,430.497986 
	C265.436096,428.926666 267.306274,427.264313 269.175079,427.265839 
	C270.922028,427.267242 272.667511,429.033844 275.608246,430.700684 
	C273.768158,426.027069 272.450104,422.679474 270.912811,418.619904 
M328.823578,427.369629 
	C329.977692,426.035919 331.131805,424.702240 332.377075,423.263153 
	C331.207489,422.592773 329.855560,421.817871 327.690369,420.576813 
	C330.468353,419.711365 332.144531,419.189178 333.820709,418.666962 
	C333.750610,418.302734 333.680542,417.938477 333.610474,417.574249 
	C331.014221,417.574249 328.417999,417.574249 325.636963,417.574249 
	C325.636963,421.732849 325.636963,425.650085 325.636963,430.081543 
	C328.506348,429.945038 331.072601,429.822968 333.638885,429.700867 
	C333.647156,429.253510 333.655457,428.806152 333.663727,428.358826 
	C332.303314,428.169464 330.942871,427.980103 328.823578,427.369629 
M301.427246,430.045044 
	C302.864349,429.895447 304.301453,429.745819 305.738556,429.596222 
	C305.701141,429.263611 305.663696,428.931000 305.626251,428.598358 
	C303.857849,428.057465 302.089447,427.516541 298.998474,426.571075 
	C301.836884,425.147827 303.224518,424.452057 304.972443,423.575592 
	C303.100311,422.557343 301.824066,421.863220 299.671906,420.692688 
	C302.413452,419.798248 304.113251,419.243713 305.813049,418.689148 
	C305.783081,418.277740 305.753113,417.866364 305.723145,417.454956 
	C303.139648,417.325256 300.556152,417.195587 297.379150,417.036072 
	C297.379150,420.901459 297.139923,424.210938 297.524780,427.446106 
	C297.640411,428.418335 299.493958,429.183838 301.427246,430.045044 
M213.168655,425.766785 
	C214.536606,425.169891 215.904556,424.572968 217.952362,423.679382 
	C215.886536,422.688110 214.463547,422.005280 212.025406,420.835358 
	C214.911774,419.868958 216.754700,419.251923 218.597610,418.634857 
	C218.515762,418.264435 218.433914,417.893982 218.352066,417.523560 
	C215.739655,417.523560 213.127258,417.523560 210.395767,417.523560 
	C210.395767,421.756989 210.395767,425.665436 210.395767,430.105133 
	C213.271423,429.960693 215.827713,429.832306 218.384003,429.703918 
	C218.374237,429.405975 218.364471,429.108032 218.354706,428.810089 
	C216.609283,428.052612 214.863876,427.295135 213.168655,425.766785 
M285.031250,424.352417 
	C283.774323,421.802521 282.517426,419.252625 281.260498,416.702728 
	C280.634277,416.999176 280.008026,417.295593 279.381805,417.592041 
	C280.886597,421.344879 282.297699,425.142517 284.038818,428.782288 
	C284.215790,429.152252 287.195953,428.966705 287.483765,428.368958 
	C289.161224,424.884979 290.423126,421.200897 291.825409,417.584412 
	C291.278137,417.303406 290.730865,417.022400 290.183594,416.741394 
	C288.628265,419.473083 287.072906,422.204803 285.031250,424.352417 
M183.629944,419.807434 
	C185.113678,419.475159 186.597427,419.142883 188.081161,418.810577 
	C188.041626,418.429443 188.002075,418.048309 187.962540,417.667175 
	C185.411362,417.667175 182.860184,417.667175 180.283600,417.667175 
	C180.283600,421.812225 180.283600,425.739532 180.283600,430.124939 
	C183.146942,429.943604 185.656448,429.784698 188.165939,429.625793 
	C188.157272,429.204010 188.148605,428.782227 188.139938,428.360443 
	C186.452866,428.067017 184.765778,427.773590 181.491821,427.204193 
	C184.102341,425.510925 185.543625,424.576080 186.821121,423.747467 
	C185.471115,422.553192 184.297318,421.514801 183.629944,419.807434 
M270.465698,441.092163 
	C269.308899,442.023438 267.302002,442.837646 267.154602,443.907928 
	C266.712097,447.121155 266.995239,450.434357 266.995239,454.158966 
	C270.151154,453.948547 272.655884,453.781525 275.160645,453.614532 
	C275.129822,453.298309 275.098999,452.982086 275.068176,452.665863 
	C273.389740,452.007538 271.711304,451.349213 270.032898,450.690887 
	C271.299408,449.601257 272.565918,448.511627 273.909973,447.355286 
	C272.505707,446.579407 271.154938,445.833069 268.845245,444.556915 
	C271.750488,443.681732 273.419312,443.178986 275.088135,442.676239 
	C275.050507,442.310791 275.012878,441.945312 274.975220,441.579865 
	C273.762177,441.417084 272.549103,441.254303 270.465698,441.092163 
M356.486633,427.080292 
	C356.074860,427.507233 355.663055,427.934174 355.251312,428.361145 
	C356.842438,428.923157 358.511200,430.068481 360.001068,429.870148 
	C361.287567,429.698853 363.052246,428.160858 363.344025,426.928436 
	C363.613678,425.789429 362.436218,424.054718 361.472076,422.953613 
	C360.640106,422.003357 359.211639,421.575409 356.970917,420.307922 
	C359.930542,419.831512 361.489716,419.580536 363.819366,419.205566 
	C360.507202,416.287415 357.682159,416.207275 355.984955,419.031128 
	C352.920319,424.129974 359.343109,423.785645 361.440674,427.257568 
	C359.582977,427.257568 358.385864,427.257568 356.486633,427.080292 
M202.488129,454.090729 
	C203.755753,453.557037 205.023376,453.023346 206.291000,452.489655 
	C206.229218,452.063812 206.167450,451.638000 206.105682,451.212158 
	C203.074463,451.456726 199.346573,453.052368 198.860016,448.206604 
	C198.294174,442.571411 202.887482,444.109222 206.004898,442.829987 
	C203.878799,441.869843 201.053986,440.811218 199.837357,441.777496 
	C197.956436,443.271332 196.385956,446.060699 196.116882,448.461304 
	C195.740036,451.823395 198.141418,453.847137 202.488129,454.090729 
M282.466278,443.093414 
	C280.051605,446.773773 279.831940,450.448975 283.670349,453.093872 
	C286.085785,454.758209 289.068176,455.116058 292.062866,450.705078 
	C287.774078,451.871735 284.076843,452.898590 283.848419,447.802368 
	C283.606415,442.402649 288.021240,444.175262 292.232971,443.435669 
	C288.471588,440.530853 285.875519,440.473480 282.466278,443.093414 
M299.830322,441.069519 
	C298.673279,441.279022 297.516205,441.488556 296.359161,441.698059 
	C296.022034,442.106842 295.684906,442.515625 295.347778,442.924408 
	C304.433319,443.075958 296.850586,451.801086 302.154938,454.323853 
	C304.509949,450.205780 299.963287,444.173218 306.685211,441.472687 
	C304.682007,441.338226 302.678802,441.203766 299.830322,441.069519 
M233.258713,417.188446 
	C233.032837,417.825226 232.806961,418.462036 232.581070,419.098816 
	C237.131561,419.623810 235.769745,423.097351 235.945557,425.817841 
	C236.034271,427.190521 236.187332,428.559021 236.311310,429.929443 
	C236.752655,430.033508 237.194016,430.137604 237.635361,430.241699 
	C238.735565,426.053955 239.835770,421.866211 241.090836,417.088989 
	C239.490952,417.088989 236.781555,417.088989 233.258713,417.188446 
M311.984650,426.343140 
	C312.528168,430.590302 315.004822,431.376862 319.909790,428.534546 
	C318.133789,428.093597 316.649933,427.725189 315.244690,427.376282 
	C314.911591,423.767334 314.603424,420.428497 314.295258,417.089661 
	C313.524933,417.164917 312.754578,417.240173 311.984222,417.315460 
	C311.984222,420.015167 311.984222,422.714874 311.984650,426.343140 
z"/>
<path fill="#8C55FE" opacity="1.000000" stroke="none" 
	d="
M349.908936,207.951721 
	C349.898682,227.091370 350.005310,246.231934 349.855591,265.370483 
	C349.451447,317.022064 307.508606,357.756561 255.906525,355.791870 
	C225.877121,354.648560 201.832047,341.064514 183.714828,316.537170 
	C187.128357,314.267548 190.522568,312.550537 194.052338,311.158691 
	C214.275421,334.664551 238.643814,347.113770 270.227356,343.121124 
	C302.894196,338.991547 332.728607,312.812744 339.831604,280.712921 
	C341.037323,275.264038 341.023956,269.484192 341.078278,263.852478 
	C341.299927,240.862274 341.329254,217.870209 341.508759,194.801285 
	C341.700958,194.504471 341.658539,194.312408 341.370850,193.772049 
	C340.290222,192.360886 339.213654,190.369202 338.323273,190.449219 
	C333.580719,190.875412 327.137512,198.752365 327.136963,203.613998 
	C327.134888,222.093796 327.157196,240.573624 327.118500,259.053345 
	C327.110840,262.710297 327.383301,266.470703 326.661987,270.007050 
	C320.790466,298.792328 303.632202,317.829071 275.298096,325.062927 
	C248.577972,331.884674 225.485352,323.719574 206.689789,303.421570 
	C207.789886,302.423645 208.777222,301.722229 209.886932,301.364410 
	C213.854172,306.127319 215.170898,305.779297 220.677094,301.644196 
	C229.981323,294.656860 235.928818,284.048126 246.661301,278.517212 
	C251.218735,276.168549 254.842484,272.008118 258.822235,268.727417 
	C259.527435,270.411163 260.279053,272.205719 261.078217,274.373962 
	C260.806061,277.051605 260.486389,279.355621 260.166687,281.659607 
	C259.551605,281.740387 258.936493,281.821136 258.321411,281.901917 
	C261.512848,284.763275 264.704285,287.624664 268.192932,290.752502 
	C266.387909,291.625427 265.409912,292.098419 264.191406,292.687744 
	C267.764038,295.033630 270.869141,297.072540 273.974243,299.111450 
	C273.837036,299.357239 273.699799,299.603058 273.562561,299.848846 
	C271.265930,299.536041 268.969269,299.223236 265.939545,298.810608 
	C268.060272,300.764801 269.528870,302.118134 272.027252,304.420349 
	C266.219788,303.747894 261.953796,303.253937 257.687836,302.759979 
	C257.573639,303.206146 257.459442,303.652313 257.345215,304.098450 
	C261.349304,305.922211 265.353394,307.745972 269.154297,309.814484 
	C268.823730,310.228790 268.696350,310.398376 268.177612,310.546387 
	C265.287506,310.155762 262.788757,309.786774 260.290009,309.417755 
	C260.183380,309.756439 260.076782,310.095123 259.970184,310.433838 
	C262.354279,312.355072 264.738403,314.276306 267.846619,316.781036 
	C264.419067,317.030579 262.263641,317.187500 259.745667,317.370819 
	C261.488861,319.801758 262.801422,321.632172 264.232758,323.628174 
	C281.509705,321.677887 296.138550,314.242981 307.860748,301.208984 
	C308.899078,300.054474 309.143005,298.185547 310.175049,295.597046 
	C310.157837,295.603577 312.245605,295.478027 312.798950,294.491638 
	C315.548798,289.589783 317.938049,284.481415 320.311340,279.379303 
	C320.535339,278.897766 319.956940,277.528076 319.426086,277.287323 
	C310.990051,273.461365 307.526428,265.669250 304.206909,257.890198 
	C309.939636,263.844086 315.322968,269.934845 320.982269,276.337860 
	C323.884979,268.096893 325.420044,209.825653 323.113617,201.188843 
	C318.060608,205.180405 313.054626,208.975540 308.282959,213.045395 
	C307.383026,213.812973 307.038910,215.687073 307.084473,217.028641 
	C307.270111,222.497421 307.895752,227.955963 307.945282,233.422028 
	C307.961914,235.258148 306.747681,237.105423 305.676971,240.132294 
	C304.176514,237.410065 303.560608,236.245956 302.902374,235.106339 
	C299.607422,229.401672 296.301361,223.703430 292.824097,217.713776 
	C286.493134,213.545609 280.337219,209.666595 274.181335,205.787582 
	C274.205170,205.201767 274.229034,204.615936 274.252899,204.030121 
	C276.934998,203.742874 279.664825,202.996094 282.288818,203.268494 
	C287.062073,203.764008 291.747864,205.116531 296.521790,205.583923 
	C298.319855,205.759933 300.806519,205.009567 302.044586,203.757385 
	C307.889984,197.845337 313.635956,191.799484 318.944275,185.408401 
	C321.246338,182.636749 324.453827,178.230438 323.630463,175.785538 
	C322.251190,171.689682 318.608215,167.407257 314.767517,165.306091 
	C308.628204,161.947357 301.569672,160.243744 294.857544,157.964630 
	C288.975342,155.967300 283.035126,154.140808 276.954956,152.185623 
	C279.583282,147.742264 282.432892,146.630157 286.950592,147.614151 
	C292.957306,148.922455 299.200958,149.143066 306.258881,149.933578 
	C305.084808,148.589066 304.596039,147.962601 304.040283,147.402588 
	C285.918060,129.140839 256.414581,123.571556 232.952225,134.092346 
	C215.895386,141.740845 203.744293,154.055069 197.393860,172.174469 
	C197.011078,173.243240 196.821487,174.068298 196.416077,175.179398 
	C195.442795,181.315125 194.685364,187.164825 193.884796,193.465973 
	C193.865051,196.937897 193.888428,199.958405 193.876892,203.447876 
	C193.837753,222.630173 193.769974,241.343857 193.882645,260.056458 
	C193.905350,263.825317 194.612595,267.590057 195.125610,271.451416 
	C195.246979,271.546112 195.681320,271.556183 195.681320,271.556183 
	C195.681320,271.556183 196.018906,271.247192 196.166092,270.911133 
	C197.570221,270.203308 198.812576,269.766602 200.088699,269.480377 
	C201.103973,269.252625 202.614395,269.604980 203.125565,269.019409 
	C206.634766,264.999329 209.883286,260.753296 213.327164,256.674103 
	C215.798828,253.746429 218.443253,250.964600 220.986908,248.483994 
	C220.248276,250.697922 219.290512,252.496552 218.904007,254.410522 
	C218.647644,255.679962 219.209061,257.114563 219.404404,258.475220 
	C221.152252,266.253571 215.302414,267.166656 209.831711,269.351013 
	C206.252167,270.780273 203.543304,274.390137 200.222839,277.110901 
	C200.001221,277.198456 199.610626,277.471588 199.609772,277.490967 
	C199.608932,277.510376 199.653610,277.528778 199.260971,277.752258 
	C197.182999,278.570282 195.497665,279.164856 193.599808,279.391907 
	C192.272614,272.685822 190.315094,266.363007 190.196609,260.005890 
	C189.793198,238.359619 189.992218,216.701065 190.075989,195.047653 
	C190.091980,190.913315 190.408478,186.751038 190.962570,182.652496 
	C195.180298,151.453918 222.216827,126.430382 255.307877,125.005432 
	C275.070282,124.154427 292.188995,130.556610 306.675873,144.041382 
	C307.607208,144.908264 308.870087,145.410828 309.943512,146.135010 
	C311.526306,147.202789 313.077484,148.317429 314.642120,149.412109 
	C314.378510,149.832108 314.114899,150.252106 313.851288,150.672089 
	C317.768341,151.669724 321.538513,152.444672 324.368286,148.219635 
	C324.911011,147.409286 326.709045,147.439667 328.031067,147.303986 
	C328.314972,147.823242 328.576141,148.005768 328.870850,148.440826 
	C327.764221,151.572708 327.421967,153.770599 332.367249,152.340363 
	C331.115662,150.649277 330.100464,149.277649 329.008850,147.671875 
	C328.772400,147.125961 328.524414,146.920258 328.180817,146.463165 
	C323.594391,140.692947 319.601044,134.613327 314.331726,129.987061 
	C295.216248,113.204269 272.430206,107.192398 247.581146,110.515579 
	C227.631149,113.183594 210.960327,123.077431 197.507507,138.044724 
	C185.521164,151.380417 177.297333,166.713989 177.007629,184.969284 
	C176.558823,213.252106 176.771027,241.549561 177.083725,269.836609 
	C177.141052,275.021637 179.010254,280.186615 179.768921,285.573395 
	C176.056305,286.807617 172.617905,287.829315 169.179504,288.851044 
	C162.604416,254.494705 165.178406,219.722977 166.513107,185.291199 
	C167.785065,152.477875 185.900360,127.798561 214.570374,111.705673 
	C251.130035,91.184196 296.303223,97.826195 325.013336,128.067886 
	C331.215820,134.601242 335.777679,142.784042 340.572174,150.530792 
	C343.945801,155.981705 347.561218,156.874817 352.328613,152.353775 
	C357.402374,147.542145 362.137939,142.287369 367.667267,138.073944 
	C371.174133,135.401642 375.713470,133.636215 380.059387,132.639023 
	C384.405548,131.641815 387.833649,135.072998 386.800201,139.472778 
	C385.822235,143.636307 383.947113,148.072372 381.150696,151.219131 
	C376.200958,156.788925 370.118500,161.336380 364.812012,166.615158 
	C363.370728,168.048935 362.338623,170.552307 362.286285,172.594696 
	C362.154510,177.734634 362.688843,182.891678 362.981934,188.537888 
	C368.393860,189.430969 367.450195,191.631577 364.581512,195.355606 
	C363.037659,197.359802 363.375824,200.897034 363.097229,203.765152 
	C362.890045,205.898071 363.056427,208.067276 363.056427,210.405029 
	C367.765594,211.014740 368.866425,212.724686 365.520721,216.375137 
	C364.438568,217.555862 363.901245,219.590942 363.824860,221.267548 
	C363.643311,225.251923 363.654602,229.277145 364.023102,233.245453 
	C364.388550,237.180634 362.667603,239.474686 358.778259,241.274490 
	C356.163422,230.317764 353.596954,219.563736 350.997986,208.077316 
	C350.511902,206.753922 350.058289,206.162933 349.604706,205.571945 
	C349.706116,206.365204 349.807526,207.158463 349.908936,207.951721 
z"/>
<path fill="#5EDEE6" opacity="1.000000" stroke="none" 
	d="
M193.916748,310.833496 
	C190.522568,312.550537 187.128357,314.267548 183.477905,316.224213 
	C174.381470,319.130554 165.692749,322.817261 156.655838,324.159241 
	C148.615814,325.353149 139.918152,325.174377 131.995895,323.415802 
	C118.883865,320.505310 112.554741,307.526031 115.474380,293.085968 
	C118.710533,277.080536 126.276001,263.063965 135.750397,250.120972 
	C143.502106,239.531326 152.153503,229.599335 160.444366,219.406952 
	C161.124130,218.571274 162.098816,217.975510 163.615646,216.694885 
	C163.615646,221.390625 163.615646,225.287369 163.093567,229.649689 
	C157.029099,236.292038 151.007446,242.109177 146.045685,248.721619 
	C136.207687,261.832489 128.079285,275.890167 125.385727,292.471100 
	C123.567139,303.665955 129.092911,312.418518 140.204590,313.787170 
	C146.995834,314.623657 154.180496,314.533173 160.895493,313.284119 
	C178.878860,309.938965 194.830444,301.311493 209.387741,290.759674 
	C228.339706,277.022430 246.516006,262.198090 264.764618,247.516525 
	C271.224121,242.319687 276.960297,236.214020 282.909241,230.403015 
	C283.780151,229.552292 287.102020,228.106720 283.211884,226.507172 
	C286.583252,223.488663 289.791229,220.745789 292.999207,218.002930 
	C296.301361,223.703430 299.607422,229.401672 302.902374,235.106339 
	C303.560608,236.245956 304.176514,237.410065 305.676971,240.132294 
	C306.747681,237.105423 307.961914,235.258148 307.945282,233.422028 
	C307.895752,227.955963 307.270111,222.497421 307.084473,217.028641 
	C307.038910,215.687073 307.383026,213.812973 308.282959,213.045395 
	C313.054626,208.975540 318.060608,205.180405 323.113617,201.188843 
	C325.420044,209.825653 323.884979,268.096893 320.982269,276.337860 
	C315.322968,269.934845 309.939636,263.844086 304.234375,257.877411 
	C303.912384,258.001495 303.954407,258.046082 304.108215,257.697571 
	C303.485596,256.577484 302.709137,255.805954 301.962280,255.017197 
	C301.991882,254.999985 301.964203,255.062622 301.966675,254.759750 
	C301.626038,254.314545 301.282928,254.172195 300.968933,254.016663 
	C300.997986,254.003464 300.972626,254.062057 300.966125,253.700851 
	C299.790649,250.782547 298.113403,250.843109 295.801758,251.973236 
	C293.412079,253.141495 290.791412,253.837387 288.163818,254.457458 
	C287.382965,253.437088 286.710144,252.699173 285.930664,251.693390 
	C285.286072,250.883408 284.748138,250.341278 284.104919,249.463211 
	C282.301483,247.587708 280.800842,245.676376 278.838623,244.633850 
	C277.432159,243.886581 275.408051,244.301895 273.369141,244.469315 
	C254.158035,265.957245 233.089020,284.757690 209.764557,301.020813 
	C208.777222,301.722229 207.789886,302.423645 206.360474,303.491638 
	C201.917877,306.183350 197.917313,308.508423 193.916748,310.833496 
z"/>
<path fill="#8B55FF" opacity="1.000000" stroke="none" 
	d="
M283.048462,226.782837 
	C287.102020,228.106720 283.780151,229.552292 282.909241,230.403015 
	C276.960297,236.214020 271.224121,242.319687 264.764618,247.516525 
	C246.516006,262.198090 228.339706,277.022430 209.387741,290.759674 
	C194.830444,301.311493 178.878860,309.938965 160.895493,313.284119 
	C154.180496,314.533173 146.995834,314.623657 140.204590,313.787170 
	C129.092911,312.418518 123.567139,303.665955 125.385727,292.471100 
	C128.079285,275.890167 136.207687,261.832489 146.045685,248.721619 
	C151.007446,242.109177 157.029099,236.292038 162.910522,229.999634 
	C163.275314,235.192154 163.301071,240.500305 162.960464,246.418091 
	C152.153046,257.176331 144.311371,269.090881 140.639465,283.157928 
	C137.968124,293.391846 139.636246,301.349274 154.059189,301.186768 
	C164.003296,301.074738 172.938934,297.669342 181.662872,293.640991 
	C204.814484,282.950470 225.971588,268.875092 246.833054,254.362671 
	C250.808090,251.597412 254.295944,248.131821 258.003754,244.997711 
	C257.998932,245.006042 257.981354,245.011398 258.304382,245.037384 
	C259.051666,244.651978 259.475891,244.240585 259.946533,243.877380 
	C259.992981,243.925583 259.865173,243.885818 260.140198,243.855759 
	C260.607849,243.532471 260.800476,243.239243 260.997589,242.972900 
	C261.002075,242.999802 260.950165,242.983139 261.273560,242.992813 
	C262.007721,242.587387 262.418457,242.172287 262.919312,241.788025 
	C263.009430,241.818848 262.820251,241.799286 263.094208,241.803741 
	C263.618011,241.556122 263.867828,241.304047 264.362671,240.907562 
	C265.312988,240.135269 266.018280,239.507385 267.003723,238.869034 
	C267.523895,238.593872 267.763947,238.329178 268.002991,238.032654 
	C268.002014,238.000839 268.061676,238.023071 268.378174,238.022308 
	C269.469818,237.386810 270.245026,236.752060 271.034027,236.091797 
	C271.047821,236.066284 271.094299,236.031586 271.302368,235.953827 
	C271.776489,235.717392 271.958557,235.491165 272.088379,235.172134 
	C272.120087,235.146896 272.191162,235.107910 272.471069,235.072388 
	C273.161987,234.690399 273.572998,234.343903 273.990570,233.996918 
	C273.997101,233.996429 274.001251,233.984344 274.230286,233.910080 
	C274.749603,233.665588 274.948700,233.421082 275.326538,232.906891 
	C278.080505,230.735260 280.564484,228.759048 283.048462,226.782837 
z"/>
<path fill="#4CA1FE" opacity="1.000000" stroke="none" 
	d="
M258.008575,244.989349 
	C254.295944,248.131821 250.808090,251.597412 246.833054,254.362671 
	C225.971588,268.875092 204.814484,282.950470 181.662872,293.640991 
	C172.938934,297.669342 164.003296,301.074738 154.059189,301.186768 
	C139.636246,301.349274 137.968124,293.391846 140.639465,283.157928 
	C144.311371,269.090881 152.153046,257.176331 162.927231,246.866119 
	C164.072922,254.432236 165.071640,262.034790 159.605850,268.923035 
	C157.315277,271.809753 156.024155,275.640106 154.849106,279.228241 
	C152.786392,285.527039 155.187485,288.772614 161.765472,289.086029 
	C163.915009,289.188446 166.077225,289.024719 168.706573,288.916870 
	C172.617905,287.829315 176.056305,286.807617 180.149918,285.478851 
	C185.140854,283.367676 189.476593,281.563568 193.812332,279.759430 
	C195.497665,279.164856 197.182999,278.570282 199.238678,277.749451 
	C199.609039,277.523224 199.610626,277.471588 199.610626,277.471588 
	C199.610626,277.471588 200.001221,277.198456 200.625793,277.091858 
	C211.009888,271.659363 220.769409,266.333466 230.923141,260.995178 
	C238.539719,256.319885 245.762085,251.656982 253.316666,246.992645 
	C254.429749,246.307037 255.210617,245.622849 255.983948,244.969391 
	C255.976395,245.000153 255.917252,244.977448 256.265350,245.009644 
	C257.078491,245.024338 257.543549,245.006851 258.008575,244.989349 
z"/>
<path fill="#FFBF5D" opacity="1.000000" stroke="none" 
	d="
M137.207520,372.648376 
	C142.155594,377.446930 142.109833,380.583801 137.542862,385.819397 
	C138.558075,388.714447 139.534836,391.499878 140.675278,394.752045 
	C135.269257,394.908813 130.904373,396.594971 128.317093,390.266296 
	C127.497467,388.261444 121.876183,388.219604 118.094704,387.181244 
	C117.750435,390.535645 117.551460,392.474396 117.323563,394.694946 
	C114.050323,394.694946 110.958282,394.694946 107.427261,394.694946 
	C107.427261,386.796753 107.427261,378.790131 107.427261,370.086884 
	C117.313271,370.771118 127.275696,368.448334 137.207520,372.648376 
M126.841446,381.761261 
	C127.902740,380.737854 128.964050,379.714417 130.025345,378.690948 
	C128.855087,377.951172 127.740021,376.708374 126.503471,376.572693 
	C123.618019,376.256073 120.674179,376.471649 117.620399,376.471649 
	C117.620399,378.388977 117.620399,380.040771 117.620399,381.874603 
	C120.722031,381.874603 123.355026,381.874603 126.841446,381.761261 
z"/>
<path fill="#FFBF5E" opacity="1.000000" stroke="none" 
	d="
M387.855591,379.047058 
	C387.855469,375.942352 387.855469,373.329407 387.855469,370.427734 
	C391.375244,370.427734 394.298279,370.427734 397.900208,370.427734 
	C397.900208,373.804810 397.900208,377.163666 397.900208,381.474823 
	C407.550323,375.886292 414.856720,366.664612 427.372284,370.883850 
	C422.023804,374.627167 416.725220,378.335541 410.906128,382.408234 
	C416.484955,386.457092 421.775116,390.296417 427.258331,394.275848 
	C417.841858,397.293549 410.834320,393.425018 404.087036,386.285248 
	C401.468628,389.004578 399.147400,391.415222 396.826172,393.825897 
	C397.084930,394.148010 397.343689,394.470123 397.602417,394.792236 
	C394.643097,394.792236 391.683746,394.792236 387.855713,394.792236 
	C387.855713,389.697754 387.855713,384.618286 387.855591,379.047058 
z"/>
<path fill="#FFC060" opacity="1.000000" stroke="none" 
	d="
M221.108246,392.675842 
	C221.090759,385.081940 221.090759,377.956024 221.090759,370.480560 
	C230.763153,370.480560 239.974335,370.480560 249.511993,370.480560 
	C249.511993,372.401703 249.511993,374.152100 249.511993,376.721497 
	C244.756851,376.721497 239.993378,376.630219 235.238403,376.790833 
	C234.156326,376.827362 233.103668,377.735809 232.037476,378.242981 
	C233.135803,378.864044 234.191406,379.904266 235.341110,380.021484 
	C237.977905,380.290344 240.669647,380.248047 243.322357,380.075165 
	C246.630981,379.859528 247.526871,381.309540 246.438217,385.037811 
	C242.923492,385.037811 239.151306,384.900116 235.399887,385.118805 
	C234.221741,385.187531 233.099457,386.214142 231.951599,386.802307 
	C233.153473,387.510590 234.329102,388.771484 235.561813,388.830017 
	C240.508087,389.064850 245.472061,388.927124 250.732071,388.927124 
	C250.844696,391.008179 250.931290,392.608154 251.055023,394.894775 
	C241.367813,394.894775 231.956329,394.920471 222.546188,394.820282 
	C222.066803,394.815186 221.598938,393.727509 221.108246,392.675842 
z"/>
<path fill="#FFBF5D" opacity="1.000000" stroke="none" 
	d="
M176.500168,385.501587 
	C178.414978,388.600647 180.125961,391.398315 182.229996,394.838715 
	C177.293030,394.520782 172.696640,397.048676 169.366089,391.582001 
	C168.677216,390.451233 164.979019,390.924927 162.689087,391.049805 
	C158.810364,391.261292 154.734909,389.727478 151.517624,394.283051 
	C150.380508,395.893188 145.628708,394.950531 141.125198,395.274078 
	C143.799164,391.006104 145.837906,387.717621 147.911896,384.451477 
	C149.960678,381.225006 152.078293,378.041962 154.106964,374.803070 
	C158.351746,368.026062 165.362900,367.967651 169.600204,374.688446 
	C171.815887,378.202698 174.063263,381.696930 176.500168,385.501587 
M161.094620,378.800690 
	C160.063568,380.596527 159.032501,382.392334 157.748306,384.629059 
	C160.742813,384.629059 163.024841,384.629059 166.378067,384.629059 
	C164.427551,382.060303 163.021988,380.209229 161.094620,378.800690 
z"/>
<path fill="#FFBF5D" opacity="1.000000" stroke="none" 
	d="
M333.157623,370.141846 
	C337.409454,369.392242 339.621368,371.177246 341.525299,374.435730 
	C345.435974,381.128662 349.743256,387.589905 354.347931,394.875336 
	C349.318024,394.459564 344.701447,397.113708 341.386932,391.589600 
	C340.711700,390.464233 337.004578,390.914551 334.720154,391.052795 
	C330.855560,391.286621 326.775635,389.709503 323.549561,394.252258 
	C322.398956,395.872467 317.673401,394.953979 313.369415,395.288300 
	C315.526001,391.644653 317.092682,388.868347 318.783722,386.169922 
	C321.516327,381.809357 324.109497,377.330963 327.223785,373.255554 
	C328.402344,371.713287 330.863251,371.150879 333.157623,370.141846 
M331.197052,384.892914 
	C333.231232,384.892914 335.265381,384.892914 338.021667,384.892914 
	C336.505737,382.147278 335.389099,380.124817 333.635254,376.948273 
	C332.258362,380.315613 331.377991,382.468628 331.197052,384.892914 
z"/>
<path fill="#FFC060" opacity="1.000000" stroke="none" 
	d="
M199.851318,385.844971 
	C200.717590,385.598541 201.673004,385.180664 202.062393,384.457855 
	C203.243393,382.265717 204.193008,379.949738 205.254852,377.692383 
	C209.026855,369.673676 209.030334,369.675323 219.150436,370.463135 
	C217.816437,372.992737 216.681213,375.243652 215.457214,377.445160 
	C213.194656,381.514557 210.282455,385.340454 208.731964,389.659515 
	C206.590790,395.624023 202.213791,395.426178 197.518250,394.911346 
	C196.453491,394.794586 195.137863,393.772369 194.573135,392.798462 
	C190.413849,385.625549 186.415833,378.359161 182.337006,371.068542 
	C190.446457,368.651550 192.161209,369.376007 195.499222,376.480469 
	C196.912857,379.489166 198.288666,382.515686 199.851318,385.844971 
z"/>
<path fill="#FFC163" opacity="1.000000" stroke="none" 
	d="
M102.327377,370.154388 
	C103.274612,371.884216 104.086433,373.579681 104.115791,375.288574 
	C104.123672,375.747528 101.783310,376.470215 100.460060,376.671204 
	C98.865494,376.913422 97.206062,376.728607 94.957642,376.728607 
	C94.957642,382.886047 94.957642,388.607758 94.957642,394.667450 
	C91.137604,394.667450 87.926071,394.667450 84.126495,394.667450 
	C84.126495,388.855042 84.126495,383.132202 84.126495,377.496124 
	C80.584404,376.804321 77.516113,376.492828 74.724449,375.444611 
	C74.077881,375.201813 74.375931,372.443329 74.178101,370.125061 
	C83.754791,370.125061 92.826530,370.125061 102.327377,370.154388 
z"/>
<path fill="#FFBF5E" opacity="1.000000" stroke="none" 
	d="
M303.593964,386.930664 
	C303.593506,389.709534 303.593506,392.007996 303.593506,394.656097 
	C299.942383,394.656097 296.744507,394.656097 292.980713,394.656097 
	C292.980713,388.781647 292.980713,383.043091 292.980713,377.019073 
	C289.538544,376.805115 286.628632,376.624237 283.426270,376.425171 
	C283.426270,374.423157 283.426270,372.671234 283.426270,370.523315 
	C293.124512,370.523315 302.808136,370.523315 312.749207,370.523315 
	C312.749207,372.480652 312.749207,374.247223 312.749207,375.950043 
	C312.357208,376.189453 312.088104,376.486938 311.794128,376.513977 
	C303.595398,377.267914 303.594971,377.263367 303.593964,386.930664 
z"/>
<path fill="#FFC060" opacity="1.000000" stroke="none" 
	d="
M369.010498,395.015869 
	C364.693024,395.015869 360.872955,395.015869 356.641205,395.015869 
	C356.641205,386.819305 356.641205,378.920135 356.641205,370.568665 
	C359.765167,370.568665 362.972046,370.568665 366.768616,370.568665 
	C366.768616,376.404572 366.768616,382.308502 366.768616,388.827576 
	C373.220215,388.827576 379.111908,388.827576 385.298340,388.827576 
	C385.298340,391.041382 385.298340,392.633209 385.298340,395.015869 
	C380.009949,395.015869 374.758942,395.015869 369.010498,395.015869 
z"/>
<path fill="#FFBE5B" opacity="1.000000" stroke="none" 
	d="
M253.999542,391.773010 
	C253.996857,384.487335 253.996857,377.680298 253.996857,370.947144 
	C254.785370,370.601746 255.215118,370.268402 255.665512,370.237671 
	C264.638672,369.625885 264.639160,369.632935 264.639313,378.693359 
	C264.639374,381.844604 264.639343,384.995880 264.639343,388.745361 
	C270.743286,388.745361 276.483185,388.745361 282.563660,388.745361 
	C282.563660,391.055328 282.563660,392.760040 282.563660,394.989899 
	C273.761566,394.989899 265.138123,395.066986 256.520966,394.870270 
	C255.661911,394.850616 254.840897,393.164368 253.999542,391.773010 
z"/>
<path fill="#5B8EBB" opacity="1.000000" stroke="none" 
	d="
M144.048828,422.847046 
	C144.890869,420.691650 145.618408,418.896637 146.889633,415.760223 
	C148.575958,419.005402 149.681717,421.133331 150.917557,423.511597 
	C152.192688,421.042297 153.285873,418.925354 154.379059,416.808411 
	C154.967941,417.037476 155.556824,417.266510 156.145721,417.495575 
	C155.005249,421.294647 153.935608,425.119324 152.588852,428.843811 
	C152.481918,429.139526 149.845123,429.163391 149.441605,428.580933 
	C148.469940,427.178406 148.126129,425.340912 147.415695,423.363281 
	C146.759247,423.972870 146.360397,424.223297 146.125793,424.581329 
	C144.956314,426.366211 143.829987,428.179382 142.688461,429.982574 
	C141.767792,428.143066 140.685013,426.364136 139.968658,424.448242 
	C139.127411,422.198364 138.604431,419.829498 137.943420,417.512207 
	C138.529068,417.254608 139.114731,416.996979 139.700378,416.739349 
	C140.900391,419.058929 142.099365,421.379089 143.313110,423.691437 
	C143.327072,423.718018 143.562454,423.678375 143.641632,423.609131 
	C143.763321,423.502808 143.839081,423.343964 144.048828,422.847046 
z"/>
<path fill="#568BB9" opacity="1.000000" stroke="none" 
	d="
M200.294495,417.298706 
	C201.623093,418.901184 203.145966,420.329285 203.360641,421.932556 
	C203.677826,424.301544 203.065048,426.795044 202.788406,429.909576 
	C201.670532,428.949432 200.083344,427.586212 198.156631,425.931366 
	C197.618805,427.345917 197.107285,428.691284 196.595749,430.036652 
	C196.143402,430.032684 195.691055,430.028717 195.238693,430.024780 
	C193.441757,426.021759 194.656830,421.707397 194.495850,417.202728 
	C196.638611,417.202728 198.271133,417.202728 200.294495,417.298706 
z"/>
<path fill="#598DBA" opacity="1.000000" stroke="none" 
	d="
M248.121948,420.317871 
	C248.485931,415.193329 252.015381,417.036926 254.040680,417.541656 
	C255.368790,417.872681 256.847107,420.103943 257.101013,421.671570 
	C257.509979,424.196381 256.963531,426.875946 256.773132,430.360931 
	C255.250534,428.853455 253.597229,427.216614 251.561401,425.201019 
	C251.237305,426.880920 250.958984,428.323547 250.672272,429.809601 
	C248.118256,428.746857 248.118256,428.746857 248.121948,420.317871 
z"/>
<path fill="#5B8EBB" opacity="1.000000" stroke="none" 
	d="
M340.786285,429.824707 
	C340.203888,425.751648 340.023224,421.808075 339.809814,417.149017 
	C342.371338,417.296600 344.637421,416.920685 346.388184,417.700989 
	C347.613373,418.247009 348.666260,420.307678 348.850250,421.807831 
	C349.156403,424.304443 348.703735,426.894135 348.527679,430.268005 
	C347.108215,428.931244 345.422272,427.343475 343.751648,425.770111 
	C342.939819,427.095062 342.063934,428.524597 340.786285,429.824707 
z"/>
<path fill="#4E86B6" opacity="1.000000" stroke="none" 
	d="
M251.815018,447.953979 
	C251.430084,450.210297 251.202011,452.118408 250.973923,454.026489 
	C250.496414,453.985199 250.018906,453.943909 249.541397,453.902618 
	C249.541397,449.811127 249.541397,445.719666 249.541397,441.628174 
	C249.842697,441.260742 250.143982,440.893280 250.445282,440.525818 
	C252.289413,443.039520 254.133530,445.553223 256.700195,449.051788 
	C257.358490,445.522705 257.763794,443.349823 258.169128,441.176910 
	C258.564148,441.194977 258.959198,441.213043 259.354218,441.231110 
	C259.354218,445.377350 259.354218,449.523590 259.354218,454.518585 
	C256.687958,452.021912 254.329926,449.813843 251.815018,447.953979 
z"/>
<path fill="#4E86B6" opacity="1.000000" stroke="none" 
	d="
M239.502563,445.692200 
	C239.670731,443.943970 239.829773,442.590881 239.988815,441.237823 
	C240.431213,441.242188 240.873611,441.246552 241.316010,441.250916 
	C241.316010,445.378418 241.316010,449.505890 241.316010,454.828400 
	C238.779449,452.101013 236.672928,449.835968 234.141800,447.114410 
	C233.682419,449.650452 233.282257,451.859528 232.882111,454.068634 
	C232.414139,453.996582 231.946182,453.924530 231.478210,453.852478 
	C231.478210,449.757874 231.478210,445.663300 231.478210,439.961395 
	C233.870010,442.689636 235.416702,444.618164 237.177597,446.325806 
	C237.535690,446.673065 238.700500,446.188477 239.502563,445.692200 
z"/>
<path fill="#598DBA" opacity="1.000000" stroke="none" 
	d="
M224.904266,448.727081 
	C223.721939,452.861603 221.028366,454.949066 217.387711,453.862091 
	C215.286591,453.234741 212.927826,450.999207 212.156250,448.937012 
	C210.813858,445.349213 213.438950,441.831451 217.037247,441.131104 
	C221.286148,440.304047 224.186996,442.943665 224.904266,448.727081 
M218.453674,451.858124 
	C219.417114,451.289062 221.087097,450.837402 221.205002,450.127838 
	C221.500732,448.348145 221.565903,446.200043 220.770218,444.708191 
	C220.372101,443.961792 217.250519,443.648651 216.502045,444.352783 
	C215.439148,445.352753 215.025482,447.495514 215.121964,449.102692 
	C215.178375,450.042542 216.766907,450.890411 218.453674,451.858124 
z"/>
<path fill="#5B8EBB" opacity="1.000000" stroke="none" 
	d="
M173.055939,422.149963 
	C173.056015,425.029327 173.056015,427.450104 173.056015,429.870850 
	C172.512726,429.990173 171.969437,430.109528 171.426147,430.228851 
	C170.743622,428.577393 170.061111,426.925934 169.265762,425.001434 
	C168.228455,425.001434 166.953964,425.001434 165.698151,425.001434 
	C165.037308,426.783051 164.403320,428.492279 163.769333,430.201508 
	C163.335922,430.087860 162.902527,429.974243 162.469116,429.860596 
	C162.469116,425.672272 162.469116,421.483978 162.469116,417.163208 
	C166.435577,417.158966 163.339615,425.316650 169.500488,421.836700 
	C169.952087,420.496460 170.547134,418.730438 171.142181,416.964447 
	C171.648865,417.034668 172.155533,417.104889 172.662216,417.175110 
	C172.793442,418.680542 172.924652,420.185944 173.055939,422.149963 
z"/>
<path fill="#558BB9" opacity="1.000000" stroke="none" 
	d="
M271.022461,418.975891 
	C272.450104,422.679474 273.768158,426.027069 275.608246,430.700684 
	C272.667511,429.033844 270.922028,427.267242 269.175079,427.265839 
	C267.306274,427.264313 265.436096,428.926666 262.298004,430.497986 
	C264.150421,425.788422 265.511108,422.005554 267.232147,418.394379 
	C267.430023,417.979156 269.637238,418.521545 271.022461,418.975891 
z"/>
<path fill="#558BB9" opacity="1.000000" stroke="none" 
	d="
M329.203003,427.580200 
	C330.942871,427.980103 332.303314,428.169464 333.663727,428.358826 
	C333.655457,428.806152 333.647156,429.253510 333.638885,429.700867 
	C331.072601,429.822968 328.506348,429.945038 325.636963,430.081543 
	C325.636963,425.650085 325.636963,421.732849 325.636963,417.574249 
	C328.417999,417.574249 331.014221,417.574249 333.610474,417.574249 
	C333.680542,417.938477 333.750610,418.302734 333.820709,418.666962 
	C332.144531,419.189178 330.468353,419.711365 327.690369,420.576813 
	C329.855560,421.817871 331.207489,422.592773 332.377075,423.263153 
	C331.131805,424.702240 329.977692,426.035919 329.203003,427.580200 
z"/>
<path fill="#558BB9" opacity="1.000000" stroke="none" 
	d="
M300.989319,430.044556 
	C299.493958,429.183838 297.640411,428.418335 297.524780,427.446106 
	C297.139923,424.210938 297.379150,420.901459 297.379150,417.036072 
	C300.556152,417.195587 303.139648,417.325256 305.723145,417.454956 
	C305.753113,417.866364 305.783081,418.277740 305.813049,418.689148 
	C304.113251,419.243713 302.413452,419.798248 299.671906,420.692688 
	C301.824066,421.863220 303.100311,422.557343 304.972443,423.575592 
	C303.224518,424.452057 301.836884,425.147827 298.998474,426.571075 
	C302.089447,427.516541 303.857849,428.057465 305.626251,428.598358 
	C305.663696,428.931000 305.701141,429.263611 305.738556,429.596222 
	C304.301453,429.745819 302.864349,429.895447 300.989319,430.044556 
z"/>
<path fill="#5B8EBB" opacity="1.000000" stroke="none" 
	d="
M213.143555,426.152222 
	C214.863876,427.295135 216.609283,428.052612 218.354706,428.810089 
	C218.364471,429.108032 218.374237,429.405975 218.384003,429.703918 
	C215.827713,429.832306 213.271423,429.960693 210.395767,430.105133 
	C210.395767,425.665436 210.395767,421.756989 210.395767,417.523560 
	C213.127258,417.523560 215.739655,417.523560 218.352066,417.523560 
	C218.433914,417.893982 218.515762,418.264435 218.597610,418.634857 
	C216.754700,419.251923 214.911774,419.868958 212.025406,420.835358 
	C214.463547,422.005280 215.886536,422.688110 217.952362,423.679382 
	C215.904556,424.572968 214.536606,425.169891 213.143555,426.152222 
z"/>
<path fill="#5B8EBB" opacity="1.000000" stroke="none" 
	d="
M285.274414,424.644470 
	C287.072906,422.204803 288.628265,419.473083 290.183594,416.741394 
	C290.730865,417.022400 291.278137,417.303406 291.825409,417.584412 
	C290.423126,421.200897 289.161224,424.884979 287.483765,428.368958 
	C287.195953,428.966705 284.215790,429.152252 284.038818,428.782288 
	C282.297699,425.142517 280.886597,421.344879 279.381805,417.592041 
	C280.008026,417.295593 280.634277,416.999176 281.260498,416.702728 
	C282.517426,419.252625 283.774323,421.802521 285.274414,424.644470 
z"/>
<path fill="#548AB8" opacity="1.000000" stroke="none" 
	d="
M183.376740,420.141907 
	C184.297318,421.514801 185.471115,422.553192 186.821121,423.747467 
	C185.543625,424.576080 184.102341,425.510925 181.491821,427.204193 
	C184.765778,427.773590 186.452866,428.067017 188.139938,428.360443 
	C188.148605,428.782227 188.157272,429.204010 188.165939,429.625793 
	C185.656448,429.784698 183.146942,429.943604 180.283600,430.124939 
	C180.283600,425.739532 180.283600,421.812225 180.283600,417.667175 
	C182.860184,417.667175 185.411362,417.667175 187.962540,417.667175 
	C188.002075,418.048309 188.041626,418.429443 188.081161,418.810577 
	C186.597427,419.142883 185.113678,419.475159 183.376740,420.141907 
z"/>
<path fill="#548AB8" opacity="1.000000" stroke="none" 
	d="
M270.900879,441.091858 
	C272.549103,441.254303 273.762177,441.417084 274.975220,441.579865 
	C275.012878,441.945312 275.050507,442.310791 275.088135,442.676239 
	C273.419312,443.178986 271.750488,443.681732 268.845245,444.556915 
	C271.154938,445.833069 272.505707,446.579407 273.909973,447.355286 
	C272.565918,448.511627 271.299408,449.601257 270.032898,450.690887 
	C271.711304,451.349213 273.389740,452.007538 275.068176,452.665863 
	C275.098999,452.982086 275.129822,453.298309 275.160645,453.614532 
	C272.655884,453.781525 270.151154,453.948547 266.995239,454.158966 
	C266.995239,450.434357 266.712097,447.121155 267.154602,443.907928 
	C267.302002,442.837646 269.308899,442.023438 270.900879,441.091858 
z"/>
<path fill="#5B8EBB" opacity="1.000000" stroke="none" 
	d="
M356.837708,427.168945 
	C358.385864,427.257568 359.582977,427.257568 361.440674,427.257568 
	C359.343109,423.785645 352.920319,424.129974 355.984955,419.031128 
	C357.682159,416.207275 360.507202,416.287415 363.819366,419.205566 
	C361.489716,419.580536 359.930542,419.831512 356.970917,420.307922 
	C359.211639,421.575409 360.640106,422.003357 361.472076,422.953613 
	C362.436218,424.054718 363.613678,425.789429 363.344025,426.928436 
	C363.052246,428.160858 361.287567,429.698853 360.001068,429.870148 
	C358.511200,430.068481 356.842438,428.923157 355.251282,428.361145 
	C355.663055,427.934174 356.074860,427.507233 356.837708,427.168945 
z"/>
<path fill="#568BB9" opacity="1.000000" stroke="none" 
	d="
M202.078903,454.090302 
	C198.141418,453.847137 195.740036,451.823395 196.116882,448.461304 
	C196.385956,446.060699 197.956436,443.271332 199.837357,441.777496 
	C201.053986,440.811218 203.878799,441.869843 206.004898,442.829987 
	C202.887482,444.109222 198.294174,442.571411 198.860016,448.206604 
	C199.346573,453.052368 203.074463,451.456726 206.105682,451.212158 
	C206.167450,451.638000 206.229218,452.063812 206.291000,452.489655 
	C205.023376,453.023346 203.755753,453.557037 202.078903,454.090302 
z"/>
<path fill="#568BB9" opacity="1.000000" stroke="none" 
	d="
M282.757080,442.815918 
	C285.875519,440.473480 288.471588,440.530853 292.232971,443.435669 
	C288.021240,444.175262 283.606415,442.402649 283.848419,447.802368 
	C284.076843,452.898590 287.774078,451.871735 292.062866,450.705078 
	C289.068176,455.116058 286.085785,454.758209 283.670349,453.093872 
	C279.831940,450.448975 280.051605,446.773773 282.757080,442.815918 
z"/>
<path fill="#5B8EBB" opacity="1.000000" stroke="none" 
	d="
M300.252960,441.069397 
	C302.678802,441.203766 304.682007,441.338226 306.685211,441.472687 
	C299.963287,444.173218 304.509949,450.205780 302.154938,454.323853 
	C296.850586,451.801086 304.433319,443.075958 295.347778,442.924408 
	C295.684906,442.515625 296.022034,442.106842 296.359161,441.698059 
	C297.516205,441.488556 298.673279,441.279022 300.252960,441.069397 
z"/>
<path fill="#5B8EBB" opacity="1.000000" stroke="none" 
	d="
M233.665436,417.138733 
	C236.781555,417.088989 239.490952,417.088989 241.090836,417.088989 
	C239.835770,421.866211 238.735565,426.053955 237.635361,430.241699 
	C237.194016,430.137604 236.752655,430.033508 236.311310,429.929443 
	C236.187332,428.559021 236.034271,427.190521 235.945557,425.817841 
	C235.769745,423.097351 237.131561,419.623810 232.581085,419.098816 
	C232.806961,418.462036 233.032837,417.825226 233.665436,417.138733 
z"/>
<path fill="#568BB9" opacity="1.000000" stroke="none" 
	d="
M311.984436,425.878845 
	C311.984222,422.714874 311.984222,420.015167 311.984222,417.315460 
	C312.754578,417.240173 313.524933,417.164917 314.295258,417.089661 
	C314.603424,420.428497 314.911591,423.767334 315.244690,427.376282 
	C316.649933,427.725189 318.133789,428.093597 319.909790,428.534546 
	C315.004822,431.376862 312.528168,430.590302 311.984436,425.878845 
z"/>
<path fill="#8E56FE" opacity="1.000000" stroke="none" 
	d="
M350.162415,207.966248 
	C349.807526,207.158463 349.706116,206.365204 349.604706,205.571945 
	C350.058289,206.162933 350.511902,206.753922 350.944031,207.679688 
	C350.753693,208.003235 350.584808,207.992004 350.162415,207.966248 
z"/>
<path fill="#5CE0E6" opacity="1.000000" stroke="none" 
	d="
M283.211884,226.507187 
	C280.564484,228.759048 278.080505,230.735260 275.090454,232.971222 
	C274.275818,233.393692 274.081451,233.644821 274.001251,233.984344 
	C274.001251,233.984344 273.997101,233.996429 273.698425,234.014313 
	C272.996918,234.390778 272.594025,234.749344 272.191162,235.107910 
	C272.191162,235.107910 272.120087,235.146896 271.856140,235.210052 
	C271.285706,235.433670 271.119720,235.686447 271.094299,236.031586 
	C271.094299,236.031586 271.047821,236.066284 270.737854,235.930267 
	C269.609833,235.538895 268.791748,235.283508 267.986481,235.014069 
	C267.999268,235.000000 267.976837,235.027618 267.969513,234.737823 
	C267.632263,234.311615 267.302368,234.175217 266.983521,234.019135 
	C266.994568,233.999466 266.958984,234.030396 267.013367,233.682587 
	C266.034790,232.558975 265.001862,231.783173 263.985168,231.002319 
	C264.001434,230.997238 263.997009,231.031006 263.953857,230.757080 
	C263.598999,230.318787 263.287323,230.154404 262.990784,229.992081 
	C263.005890,229.994125 263.009949,230.024399 262.960907,229.751923 
	C262.599762,229.316315 262.287689,229.153183 261.990906,228.991913 
	C262.006226,228.993759 262.011444,229.024185 261.934418,228.741226 
	C261.518036,228.278458 261.178711,228.098663 260.695251,227.902710 
	C260.551178,227.886551 260.267883,227.824631 260.062683,227.655487 
	C259.283875,228.009521 258.710327,228.532715 257.992249,229.365158 
	C253.019958,235.458649 248.256226,241.298096 243.335815,247.002411 
	C241.074661,249.623795 238.666870,252.174942 236.005356,254.369629 
	C234.783966,255.376785 232.790756,255.447968 230.979843,255.644806 
	C227.544952,252.936569 224.277771,250.527130 221.010590,248.117706 
	C218.443253,250.964600 215.798828,253.746429 213.327164,256.674103 
	C209.883286,260.753296 206.634766,264.999329 203.125565,269.019409 
	C202.614395,269.604980 201.103973,269.252625 200.088699,269.480377 
	C198.812576,269.766602 197.570221,270.203308 195.912415,270.936768 
	C195.342438,271.317871 195.173340,271.337280 195.004242,271.356689 
	C194.612595,267.590057 193.905350,263.825317 193.882645,260.056458 
	C193.769974,241.343857 193.837753,222.630173 194.279144,203.496613 
	C198.108521,203.714005 201.491165,204.834320 204.894608,204.901474 
	C216.510086,205.130676 228.132904,204.989273 239.923126,204.989273 
	C239.612762,204.305145 239.346024,203.717209 239.249176,203.503708 
	C248.693359,203.503708 258.206512,203.503708 267.719666,203.503708 
	C267.725006,203.424286 267.730347,203.344864 267.735687,203.265442 
	C263.826569,202.840637 259.917450,202.415833 256.096649,201.595520 
	C258.185516,200.800461 260.169373,200.216751 262.189545,200.033707 
	C270.260925,199.302414 278.343628,198.695663 286.422119,198.042816 
	C286.407410,197.539474 286.392670,197.036133 286.377930,196.532791 
	C281.577637,196.026154 276.777313,195.519531 271.516541,195.011047 
	C260.745056,194.929306 250.249573,195.755646 241.314163,188.875214 
	C241.668594,185.190796 237.821854,181.309113 233.788055,181.162064 
	C232.838058,181.127426 231.912796,180.414078 231.271912,179.714691 
	C242.716888,178.221786 253.584488,179.740540 264.356079,182.603058 
	C273.732880,185.094910 283.107880,184.403809 292.425720,182.530289 
	C292.521667,182.042099 292.617584,181.553909 292.713531,181.065720 
	C287.559143,179.600662 282.404785,178.135590 277.250397,176.670517 
	C277.351532,176.259903 277.452637,175.849274 277.553772,175.438644 
	C280.518982,175.115448 283.484222,174.792252 286.449432,174.469040 
	C286.407318,173.983246 286.365173,173.497452 286.323029,173.011658 
	C282.877045,173.011658 279.431030,173.011658 275.564453,173.008423 
	C271.773346,172.540558 268.402863,172.075943 265.032349,171.611313 
	C265.036377,171.332092 265.040375,171.052872 265.044403,170.773651 
	C270.884857,170.773651 276.725311,170.773651 282.565765,170.773651 
	C282.652466,170.056793 282.739197,169.339935 282.825897,168.623093 
	C280.186676,168.094162 277.313660,166.629807 274.953979,167.219559 
	C268.955475,168.718719 265.871094,164.922150 261.742126,162.014618 
	C258.267975,159.568237 253.655685,158.557785 249.405640,157.459503 
	C246.745804,156.772141 243.823761,157.099472 241.012939,156.587952 
	C240.989594,151.616104 237.816803,149.236664 234.108978,149.294006 
	C231.284500,149.337677 228.497192,151.784790 225.693344,153.162643 
	C225.791077,153.328552 225.888794,153.494461 225.986526,153.660385 
	C223.157791,154.778412 220.329056,155.896439 218.327942,156.687363 
	C215.298721,156.252518 211.750000,154.684219 210.413879,155.789841 
	C208.194687,157.626190 207.103088,161.081757 206.109879,164.047348 
	C205.509903,165.838837 205.991898,167.992691 205.616760,169.988098 
	C204.504547,169.998779 203.763321,170.005081 202.661896,170.044601 
	C200.730164,170.695480 199.158615,171.313126 197.587067,171.930771 
	C203.744293,154.055069 215.895386,141.740845 232.952225,134.092346 
	C256.414581,123.571556 285.918060,129.140839 304.040283,147.402588 
	C304.596039,147.962601 305.084808,148.589066 306.258881,149.933578 
	C299.200958,149.143066 292.957306,148.922455 286.950592,147.614151 
	C282.432892,146.630157 279.583282,147.742264 276.954956,152.185623 
	C283.035126,154.140808 288.975342,155.967300 294.857544,157.964630 
	C301.569672,160.243744 308.628204,161.947357 314.767517,165.306091 
	C318.608215,167.407257 322.251190,171.689682 323.630463,175.785538 
	C324.453827,178.230438 321.246338,182.636749 318.944275,185.408401 
	C313.635956,191.799484 307.889984,197.845337 302.044586,203.757385 
	C300.806519,205.009567 298.319855,205.759933 296.521790,205.583923 
	C291.747864,205.116531 287.062073,203.764008 282.288818,203.268494 
	C279.664825,202.996094 276.934998,203.742874 274.252899,204.030121 
	C274.229034,204.615936 274.205170,205.201767 274.181335,205.787582 
	C280.337219,209.666595 286.493134,213.545609 292.824097,217.713776 
	C289.791229,220.745789 286.583252,223.488663 283.211884,226.507187 
M290.499054,170.984634 
	C292.666595,170.721924 294.834167,170.459213 297.001709,170.196503 
	C294.881744,169.015442 292.929321,168.978943 290.978912,169.026154 
	C289.181976,169.069641 287.387207,169.203110 285.591461,169.296951 
	C285.603455,169.738342 285.615479,170.179749 285.627472,170.621155 
	C286.964081,170.742355 288.300720,170.863556 290.499054,170.984634 
z"/>
<path fill="#AFC3DD" opacity="1.000000" stroke="none" 
	d="
M193.599808,279.391907 
	C189.476593,281.563568 185.140854,283.367676 180.424118,285.266327 
	C179.010254,280.186615 177.141052,275.021637 177.083725,269.836609 
	C176.771027,241.549561 176.558823,213.252106 177.007629,184.969284 
	C177.297333,166.713989 185.521164,151.380417 197.507507,138.044724 
	C210.960327,123.077431 227.631149,113.183594 247.581146,110.515579 
	C272.430206,107.192398 295.216248,113.204269 314.331726,129.987061 
	C319.601044,134.613327 323.594391,140.692947 328.114532,146.527374 
	C328.055878,146.949066 327.927948,147.082169 327.927948,147.082169 
	C326.709045,147.439667 324.911011,147.409286 324.368286,148.219635 
	C321.538513,152.444672 317.768341,151.669724 313.851288,150.672089 
	C314.114899,150.252106 314.378510,149.832108 314.642120,149.412109 
	C313.077484,148.317429 311.526306,147.202789 309.943512,146.135010 
	C308.870087,145.410828 307.607208,144.908264 306.675873,144.041382 
	C292.188995,130.556610 275.070282,124.154427 255.307877,125.005432 
	C222.216827,126.430382 195.180298,151.453918 190.962570,182.652496 
	C190.408478,186.751038 190.091980,190.913315 190.075989,195.047653 
	C189.992218,216.701065 189.793198,238.359619 190.196609,260.005890 
	C190.315094,266.363007 192.272614,272.685822 193.599808,279.391907 
z"/>
<path fill="#AEC2DE" opacity="1.000000" stroke="none" 
	d="
M194.052322,311.158691 
	C197.917313,308.508423 201.917877,306.183350 206.247726,303.788147 
	C225.485352,323.719574 248.577972,331.884674 275.298096,325.062927 
	C303.632202,317.829071 320.790466,298.792328 326.661987,270.007050 
	C327.383301,266.470703 327.110840,262.710297 327.118500,259.053345 
	C327.157196,240.573624 327.134888,222.093796 327.136963,203.613998 
	C327.137512,198.752365 333.580719,190.875412 338.323273,190.449219 
	C339.213654,190.369202 340.290222,192.360886 341.291138,193.951385 
	C341.301453,194.506195 341.429413,194.878830 341.429413,194.878830 
	C341.329254,217.870209 341.299927,240.862274 341.078278,263.852478 
	C341.023956,269.484192 341.037323,275.264038 339.831604,280.712921 
	C332.728607,312.812744 302.894196,338.991547 270.227356,343.121124 
	C238.643814,347.113770 214.275421,334.664551 194.052322,311.158691 
z"/>
<path fill="#03BD66" opacity="1.000000" stroke="none" 
	d="
M269.357483,309.569733 
	C265.353394,307.745972 261.349304,305.922211 257.345215,304.098450 
	C257.459442,303.652313 257.573639,303.206146 257.687836,302.759979 
	C261.953796,303.253937 266.219788,303.747894 272.027252,304.420349 
	C269.528870,302.118134 268.060272,300.764801 265.939545,298.810608 
	C268.969269,299.223236 271.265930,299.536041 273.562561,299.848846 
	C273.699799,299.603058 273.837036,299.357239 273.974243,299.111450 
	C270.869141,297.072540 267.764038,295.033630 264.191406,292.687744 
	C265.409912,292.098419 266.387909,291.625427 268.192932,290.752502 
	C264.704285,287.624664 261.512848,284.763275 258.321411,281.901917 
	C258.936493,281.821136 259.551605,281.740387 260.166687,281.659607 
	C260.486389,279.355621 260.806061,277.051605 261.425476,274.408569 
	C262.835510,274.386444 263.945801,274.703339 265.128082,275.387268 
	C265.631226,275.842712 266.062378,275.931122 266.496155,276.009521 
	C266.498779,275.999512 266.485718,276.017883 266.297485,276.387695 
	C267.140411,278.485321 268.171570,280.213074 269.185364,282.117554 
	C269.305511,282.190338 269.443054,282.086456 269.685730,281.589478 
	C271.037659,278.162811 272.144653,280.199524 273.091522,281.365173 
	C274.219452,282.753693 275.169861,284.286377 276.379669,286.017731 
	C276.899841,284.788666 277.246277,283.970154 277.727509,282.833130 
	C281.348450,285.480988 284.760834,287.976318 288.077484,290.401703 
	C289.833527,286.420837 285.686066,279.018280 294.405396,277.039429 
	C292.706635,275.899139 291.799072,275.289948 290.684540,274.541840 
	C292.283264,272.770996 293.657532,271.248840 295.176361,269.566498 
	C293.307556,269.132965 291.860840,268.797394 289.535675,268.258026 
	C291.948090,265.974762 293.706848,264.310181 295.478241,262.633606 
	C293.996277,259.426117 296.940338,254.787186 300.972626,254.062057 
	C300.972626,254.062057 300.997986,254.003464 300.924805,254.351044 
	C301.222473,254.819946 301.593353,254.941284 301.964203,255.062622 
	C301.964203,255.062622 301.991882,254.999985 301.807373,255.341736 
	C302.400085,256.471008 303.177246,257.258545 303.954407,258.046082 
	C303.954407,258.046082 303.912384,258.001495 303.884918,258.014282 
	C307.526428,265.669250 310.990051,273.461365 319.426086,277.287323 
	C319.956940,277.528076 320.535339,278.897766 320.311340,279.379303 
	C317.938049,284.481415 315.548798,289.589783 312.798950,294.491638 
	C312.245605,295.478027 310.157837,295.603577 310.175049,295.597046 
	C309.143005,298.185547 308.899078,300.054474 307.860748,301.208984 
	C296.138550,314.242981 281.509705,321.677887 264.232758,323.628174 
	C262.801422,321.632172 261.488861,319.801758 259.745667,317.370819 
	C262.263641,317.187500 264.419067,317.030579 267.846619,316.781036 
	C264.738403,314.276306 262.354279,312.355072 259.970184,310.433838 
	C260.076782,310.095123 260.183380,309.756439 260.290009,309.417755 
	C262.788757,309.786774 265.287506,310.155762 268.496521,310.720856 
	C270.085876,310.970673 270.964996,311.024414 271.844086,311.078156 
	C271.879700,310.878143 271.915314,310.678131 271.950928,310.478119 
	C271.086456,310.175323 270.221954,309.872528 269.357483,309.569733 
z"/>
<path fill="#44C4F7" opacity="1.000000" stroke="none" 
	d="
M230.976166,180.012955 
	C231.912796,180.414078 232.838058,181.127426 233.788055,181.162064 
	C237.821854,181.309113 241.668594,185.190796 241.314163,188.875214 
	C250.249573,195.755646 260.745056,194.929306 271.225830,195.306946 
	C263.510712,197.394943 254.842529,193.610260 245.890152,199.176468 
	C250.180115,200.369797 253.094223,201.180405 256.008331,201.991013 
	C259.917450,202.415833 263.826569,202.840637 267.735687,203.265442 
	C267.730347,203.344864 267.725006,203.424286 267.719666,203.503708 
	C258.206512,203.503708 248.693359,203.503708 239.249176,203.503708 
	C239.346024,203.717209 239.612762,204.305145 239.923126,204.989273 
	C228.132904,204.989273 216.510086,205.130676 204.894608,204.901474 
	C201.491165,204.834320 198.108521,203.714005 194.314072,203.027634 
	C193.888428,199.958405 193.865051,196.937897 194.289520,193.459274 
	C202.801147,188.836548 210.865540,184.673096 218.921295,180.492981 
	C219.013092,180.445343 218.992645,180.181396 219.304855,179.808533 
	C221.417252,178.818970 223.289383,177.342285 225.070923,177.444519 
	C227.081833,177.559906 229.011292,179.095200 230.976166,180.012955 
z"/>
<path fill="#06BB6A" opacity="1.000000" stroke="none" 
	d="
M265.056122,275.020233 
	C263.945801,274.703339 262.835510,274.386444 261.377930,274.034912 
	C260.279053,272.205719 259.527435,270.411163 258.822235,268.727417 
	C254.842484,272.008118 251.218735,276.168549 246.661301,278.517212 
	C235.928818,284.048126 229.981323,294.656860 220.677094,301.644196 
	C215.170898,305.779297 213.854172,306.127319 209.886932,301.364410 
	C233.089020,284.757690 254.158035,265.957245 273.603271,244.703262 
	C276.052307,246.427444 277.976898,248.188477 279.604065,250.099792 
	C277.857117,251.244217 276.407623,252.238373 274.702484,253.186371 
	C274.243256,253.409485 274.039703,253.678772 273.536560,254.103668 
	C269.492310,258.324036 265.747650,262.388763 261.608154,266.882141 
	C265.069885,269.352112 267.327820,270.963165 270.514374,273.236786 
	C269.169922,274.164917 267.827820,275.091400 266.485718,276.017883 
	C266.485718,276.017883 266.498779,275.999512 266.458984,275.658875 
	C265.964844,275.218872 265.510498,275.119568 265.056122,275.020233 
z"/>
<path fill="#52D6ED" opacity="1.000000" stroke="none" 
	d="
M231.271912,179.714691 
	C229.011292,179.095200 227.081833,177.559906 225.070923,177.444519 
	C223.289383,177.342285 221.417252,178.818970 219.031235,179.519012 
	C216.152145,179.137299 213.826965,178.835236 211.501770,178.533157 
	C211.445953,178.219315 211.390152,177.905487 211.334335,177.591644 
	C213.735031,176.383728 216.135742,175.175812 218.536453,173.967896 
	C218.473907,173.749222 218.411346,173.530548 218.348801,173.311874 
	C211.109833,173.839035 203.870880,174.366196 196.631912,174.893372 
	C196.821487,174.068298 197.011078,173.243240 197.393860,172.174469 
	C199.158615,171.313126 200.730164,170.695480 202.951630,170.341919 
	C210.998550,172.137924 218.533218,171.339203 226.102509,172.519440 
	C240.881943,174.823898 256.095123,174.398102 271.135406,174.902313 
	C272.729034,174.955734 274.367401,173.673981 275.985016,173.011658 
	C279.431030,173.011658 282.877045,173.011658 286.323029,173.011658 
	C286.365173,173.497452 286.407318,173.983246 286.449432,174.469040 
	C283.484222,174.792252 280.518982,175.115448 277.553772,175.438644 
	C277.452637,175.849274 277.351532,176.259903 277.250397,176.670517 
	C282.404785,178.135590 287.559143,179.600662 292.713531,181.065720 
	C292.617584,181.553909 292.521667,182.042099 292.425720,182.530289 
	C283.107880,184.403809 273.732880,185.094910 264.356079,182.603058 
	C253.584488,179.740540 242.716888,178.221786 231.271912,179.714691 
z"/>
<path fill="#5BDFE7" opacity="1.000000" stroke="none" 
	d="
M196.416077,175.179398 
	C203.870880,174.366196 211.109833,173.839035 218.348801,173.311874 
	C218.411346,173.530548 218.473907,173.749222 218.536453,173.967896 
	C216.135742,175.175812 213.735031,176.383728 211.334335,177.591644 
	C211.390152,177.905487 211.445953,178.219315 211.501770,178.533157 
	C213.826965,178.835236 216.152145,179.137299 218.750961,179.728897 
	C218.992645,180.181396 219.013092,180.445343 218.921295,180.492981 
	C210.865540,184.673096 202.801147,188.836548 194.332642,193.007843 
	C194.685364,187.164825 195.442795,181.315125 196.416077,175.179398 
z"/>
<path fill="#07BA6B" opacity="1.000000" stroke="none" 
	d="
M220.986908,248.483994 
	C224.277771,250.527130 227.544952,252.936569 231.032013,256.001434 
	C231.010895,258.107086 230.769897,259.557312 230.528931,261.007538 
	C220.769409,266.333466 211.009888,271.659363 200.847412,277.004272 
	C203.543304,274.390137 206.252167,270.780273 209.831711,269.351013 
	C215.302414,267.166656 221.152252,266.253571 219.404404,258.475220 
	C219.209061,257.114563 218.647644,255.679962 218.904007,254.410522 
	C219.290512,252.496552 220.248276,250.697922 220.986908,248.483994 
z"/>
<path fill="#AFC3DD" opacity="1.000000" stroke="none" 
	d="
M329.085297,147.906021 
	C330.100464,149.277649 331.115662,150.649277 332.367249,152.340363 
	C327.421967,153.770599 327.764221,151.572708 328.914551,148.399628 
	C329.004944,147.990952 329.085297,147.906021 329.085297,147.906021 
z"/>
<path fill="#AFC3DD" opacity="1.000000" stroke="none" 
	d="
M328.122162,146.884842 
	C328.524414,146.920258 328.772400,147.125961 329.008850,147.671875 
	C329.085297,147.906021 329.004944,147.990952 328.961273,148.032150 
	C328.576141,148.005768 328.314972,147.823242 328.031067,147.303986 
	C327.927948,147.082169 328.055878,146.949066 328.122162,146.884842 
z"/>
<path fill="#8E56FE" opacity="1.000000" stroke="none" 
	d="
M341.508759,194.801285 
	C341.429413,194.878830 341.301453,194.506195 341.381134,194.326874 
	C341.658539,194.312408 341.700958,194.504471 341.508759,194.801285 
z"/>
<path fill="#8B59FD" opacity="1.000000" stroke="none" 
	d="
M195.125610,271.451416 
	C195.173340,271.337280 195.342438,271.317871 195.765228,271.272827 
	C196.018906,271.247192 195.681320,271.556183 195.681320,271.556183 
	C195.681320,271.556183 195.246979,271.546112 195.125610,271.451416 
z"/>
<path fill="#07BA6B" opacity="1.000000" stroke="none" 
	d="
M199.609772,277.490967 
	C199.610626,277.471588 199.609039,277.523224 199.631317,277.526001 
	C199.653610,277.528778 199.608932,277.510376 199.609772,277.490967 
z"/>
<path fill="#8C55FE" opacity="1.000000" stroke="none" 
	d="
M274.958130,253.232513 
	C276.407623,252.238373 277.857117,251.244217 279.973236,250.141891 
	C280.886200,250.060028 281.132507,250.086334 281.360321,250.539291 
	C280.947449,254.178329 280.553070,257.390717 280.189392,260.600830 
	C280.220154,260.598511 280.336670,260.825867 280.708984,260.650085 
	C283.132385,258.920227 285.183472,257.366150 287.492615,255.542847 
	C287.924408,255.095734 288.098114,254.917847 288.271820,254.739929 
	C290.791412,253.837387 293.412079,253.141495 295.801758,251.973236 
	C298.113403,250.843109 299.790649,250.782547 300.966125,253.700851 
	C296.940338,254.787186 293.996277,259.426117 295.478241,262.633606 
	C293.706848,264.310181 291.948090,265.974762 289.535675,268.258026 
	C291.860840,268.797394 293.307556,269.132965 295.176361,269.566498 
	C293.657532,271.248840 292.283264,272.770996 290.684540,274.541840 
	C291.799072,275.289948 292.706635,275.899139 294.405396,277.039429 
	C285.686066,279.018280 289.833527,286.420837 288.077484,290.401703 
	C284.760834,287.976318 281.348450,285.480988 277.727509,282.833130 
	C277.246277,283.970154 276.899841,284.788666 276.379669,286.017731 
	C275.169861,284.286377 274.219452,282.753693 273.091522,281.365173 
	C272.144653,280.199524 271.037659,278.162811 269.591003,281.581848 
	C269.391113,281.967285 269.202728,281.940857 269.202728,281.940857 
	C268.171570,280.213074 267.140411,278.485321 266.297485,276.387695 
	C267.827820,275.091400 269.169922,274.164917 270.514374,273.236786 
	C267.327820,270.963165 265.069885,269.352112 261.608154,266.882141 
	C265.747650,262.388763 269.492310,258.324036 273.762054,254.051971 
	C274.584473,253.721344 274.808136,253.517288 274.958130,253.232513 
z"/>
<path fill="#7869EB" opacity="1.000000" stroke="none" 
	d="
M281.378784,250.112640 
	C281.132507,250.086334 280.886200,250.060028 280.270691,249.991608 
	C277.976898,248.188477 276.052307,246.427444 273.893616,244.432480 
	C275.408051,244.301895 277.432159,243.886581 278.838623,244.633850 
	C280.800842,245.676376 282.301483,247.587708 283.888000,249.676117 
	C283.633148,250.366379 283.489960,250.507797 283.143311,250.456833 
	C282.419495,250.213852 281.899139,250.163239 281.378784,250.112640 
z"/>
<path fill="#8C55FE" opacity="1.000000" stroke="none" 
	d="
M286.037323,251.961243 
	C286.710144,252.699173 287.382965,253.437088 288.163818,254.457474 
	C288.098114,254.917847 287.924408,255.095734 287.171234,255.407761 
	C285.988129,254.373749 285.384552,253.205612 285.095215,252.021667 
	C285.618774,251.990982 285.828064,251.976105 286.037323,251.961243 
z"/>
<path fill="#8C55FE" opacity="1.000000" stroke="none" 
	d="
M304.108215,257.697571 
	C303.177246,257.258545 302.400085,256.471008 301.777771,255.358948 
	C302.709137,255.805954 303.485596,256.577484 304.108215,257.697571 
z"/>
<path fill="#7869EB" opacity="1.000000" stroke="none" 
	d="
M285.930664,251.693390 
	C285.828064,251.976105 285.618774,251.990982 284.868896,251.908310 
	C284.001068,251.423569 283.673920,251.036392 283.346771,250.649200 
	C283.489960,250.507797 283.633148,250.366379 283.993286,250.012054 
	C284.748138,250.341278 285.286072,250.883408 285.930664,251.693390 
z"/>
<path fill="#8C55FE" opacity="1.000000" stroke="none" 
	d="
M301.966675,254.759735 
	C301.593353,254.941284 301.222473,254.819946 300.895752,254.364227 
	C301.282928,254.172195 301.626038,254.314545 301.966675,254.759735 
z"/>
<path fill="#08B96D" opacity="1.000000" stroke="none" 
	d="
M260.267883,227.824631 
	C260.267883,227.824631 260.551178,227.886551 260.813538,228.163605 
	C261.387756,228.635162 261.699615,228.829666 262.011444,229.024185 
	C262.011444,229.024185 262.006226,228.993759 262.061951,229.249329 
	C262.415131,229.678055 262.712524,229.851227 263.009949,230.024399 
	C263.009949,230.024399 263.005890,229.994125 263.058563,230.253998 
	C263.406494,230.686249 263.701752,230.858627 263.997009,231.031006 
	C263.997009,231.031006 264.001434,230.997238 264.004578,231.341248 
	C264.991486,232.466965 265.975250,233.248688 266.958984,234.030396 
	C266.958984,234.030396 266.994568,233.999466 267.010132,234.292801 
	C267.342743,234.733307 267.659790,234.880463 267.976837,235.027618 
	C267.976837,235.027618 267.999268,235.000000 268.025360,235.290802 
	C268.054871,236.395432 268.058289,237.209244 268.061676,238.023071 
	C268.061676,238.023071 268.002014,238.000839 267.739502,238.074036 
	C267.225830,238.391312 266.974701,238.635406 266.723572,238.879486 
	C266.018280,239.507385 265.312988,240.135269 264.077820,240.889679 
	C263.305389,241.277222 263.062805,241.538254 262.820251,241.799286 
	C262.820251,241.799286 263.009430,241.818848 262.614502,241.805527 
	C261.796417,242.189178 261.373291,242.586166 260.950165,242.983154 
	C260.950165,242.983139 261.002075,242.999802 260.726318,243.018829 
	C260.255402,243.320496 260.060272,243.603149 259.865173,243.885803 
	C259.865173,243.885818 259.992981,243.925583 259.634460,243.872467 
	C258.844391,244.216690 258.412872,244.614029 257.981354,245.011383 
	C257.981354,245.011398 257.998932,245.006042 258.003754,244.997696 
	C257.543549,245.006851 257.078491,245.024338 256.022125,244.699310 
	C257.448212,242.138672 259.465668,239.920563 261.916718,237.225693 
	C260.349701,237.541595 259.432526,237.726501 258.128540,237.989380 
	C258.670959,234.896744 259.187286,231.952957 259.845398,228.713348 
	C260.080719,228.219910 260.174286,228.022278 260.267883,227.824631 
z"/>
<path fill="#6C82F1" opacity="1.000000" stroke="none" 
	d="
M268.378174,238.022308 
	C268.058289,237.209244 268.054871,236.395432 268.012573,235.304871 
	C268.791748,235.283508 269.609833,235.538895 270.724060,235.955780 
	C270.245026,236.752060 269.469818,237.386810 268.378174,238.022308 
z"/>
<path fill="#6C82F1" opacity="1.000000" stroke="none" 
	d="
M272.471069,235.072388 
	C272.594025,234.749344 272.996918,234.390778 273.691895,234.014816 
	C273.572998,234.343903 273.161987,234.690399 272.471069,235.072388 
z"/>
<path fill="#4CA1FE" opacity="1.000000" stroke="none" 
	d="
M258.304382,245.037384 
	C258.412872,244.614029 258.844391,244.216690 259.588013,243.824265 
	C259.475891,244.240585 259.051666,244.651978 258.304382,245.037384 
z"/>
<path fill="#4CA1FE" opacity="1.000000" stroke="none" 
	d="
M261.273560,242.992828 
	C261.373291,242.586166 261.796417,242.189178 262.524353,241.774689 
	C262.418457,242.172287 262.007721,242.587387 261.273560,242.992828 
z"/>
<path fill="#4CA1FE" opacity="1.000000" stroke="none" 
	d="
M263.094208,241.803741 
	C263.062805,241.538254 263.305389,241.277222 263.832825,241.034073 
	C263.867828,241.304047 263.618011,241.556122 263.094208,241.803741 
z"/>
<path fill="#6C82F1" opacity="1.000000" stroke="none" 
	d="
M274.230286,233.910080 
	C274.081451,233.644821 274.275818,233.393692 274.820496,233.166626 
	C274.948700,233.421082 274.749603,233.665588 274.230286,233.910080 
z"/>
<path fill="#6C82F1" opacity="1.000000" stroke="none" 
	d="
M271.302368,235.953827 
	C271.119720,235.686447 271.285706,235.433670 271.824432,235.235291 
	C271.958557,235.491165 271.776489,235.717392 271.302368,235.953827 
z"/>
<path fill="#6C82F1" opacity="1.000000" stroke="none" 
	d="
M267.003723,238.869019 
	C266.974701,238.635406 267.225830,238.391312 267.740479,238.105865 
	C267.763947,238.329178 267.523895,238.593872 267.003723,238.869019 
z"/>
<path fill="#4CA1FE" opacity="1.000000" stroke="none" 
	d="
M260.140198,243.855743 
	C260.060272,243.603149 260.255402,243.320496 260.721802,242.991928 
	C260.800476,243.239243 260.607849,243.532471 260.140198,243.855743 
z"/>
<path fill="#865AFA" opacity="1.000000" stroke="none" 
	d="
M259.703613,229.009155 
	C259.187286,231.952957 258.670959,234.896744 258.128540,237.989380 
	C259.432526,237.726501 260.349701,237.541595 261.916718,237.225693 
	C259.465668,239.920563 257.448212,242.138672 255.674011,244.667114 
	C255.917252,244.977448 255.976395,245.000153 255.710388,244.695770 
	C254.624405,245.258957 253.804428,246.126511 252.984451,246.994064 
	C245.762085,251.656982 238.539719,256.319885 230.923126,260.995178 
	C230.769897,259.557312 231.010895,258.107086 231.199707,256.300232 
	C232.790756,255.447968 234.783966,255.376785 236.005356,254.369629 
	C238.666870,252.174942 241.074661,249.623795 243.335815,247.002411 
	C248.256226,241.298096 253.019958,235.458649 258.252441,229.351242 
	C259.006012,229.021759 259.354797,229.015457 259.703613,229.009155 
z"/>
<path fill="#08B96D" opacity="1.000000" stroke="none" 
	d="
M253.316666,246.992645 
	C253.804428,246.126511 254.624405,245.258957 255.717926,244.665024 
	C255.210617,245.622849 254.429749,246.307037 253.316666,246.992645 
z"/>
<path fill="#FFF6E9" opacity="1.000000" stroke="none" 
	d="
M126.414734,381.817932 
	C123.355026,381.874603 120.722031,381.874603 117.620399,381.874603 
	C117.620399,380.040771 117.620399,378.388977 117.620399,376.471649 
	C120.674179,376.471649 123.618019,376.256073 126.503471,376.572693 
	C127.740021,376.708374 128.855087,377.951172 130.025345,378.690979 
	C128.964050,379.714417 127.902740,380.737854 126.414734,381.817932 
z"/>
<path fill="#FFF8EC" opacity="1.000000" stroke="none" 
	d="
M161.355530,378.579407 
	C163.021988,380.209229 164.427551,382.060303 166.378067,384.629059 
	C163.024841,384.629059 160.742813,384.629059 157.748306,384.629059 
	C159.032501,382.392334 160.063568,380.596527 161.355530,378.579407 
z"/>
<path fill="#FFF8EC" opacity="1.000000" stroke="none" 
	d="
M330.847351,384.757294 
	C331.377991,382.468628 332.258362,380.315613 333.635254,376.948273 
	C335.389099,380.124817 336.505737,382.147278 338.021667,384.892914 
	C335.265381,384.892914 333.231232,384.892914 330.847351,384.757294 
z"/>
<path fill="#F6F9FB" opacity="1.000000" stroke="none" 
	d="
M218.059937,451.818909 
	C216.766907,450.890411 215.178375,450.042542 215.121964,449.102692 
	C215.025482,447.495514 215.439148,445.352753 216.502045,444.352783 
	C217.250519,443.648651 220.372101,443.961792 220.770218,444.708191 
	C221.565903,446.200043 221.500732,448.348145 221.205002,450.127838 
	C221.087097,450.837402 219.417114,451.289062 218.059937,451.818909 
z"/>
<path fill="#44C4F7" opacity="1.000000" stroke="none" 
	d="
M275.564453,173.008423 
	C274.367401,173.673981 272.729034,174.955734 271.135406,174.902313 
	C256.095123,174.398102 240.881943,174.823898 226.102509,172.519440 
	C218.533218,171.339203 210.998550,172.137924 203.311829,170.308701 
	C203.763321,170.005081 204.504547,169.998779 205.978302,169.840775 
	C214.919693,168.586197 221.997101,165.718979 227.701599,159.128845 
	C230.974625,155.347687 236.112091,154.874237 241.019363,156.971497 
	C243.823761,157.099472 246.745804,156.772141 249.405640,157.459503 
	C253.655685,158.557785 258.267975,159.568237 261.742126,162.014618 
	C265.871094,164.922150 268.955475,168.718719 274.953979,167.219559 
	C277.313660,166.629807 280.186676,168.094162 282.825897,168.623093 
	C282.739197,169.339935 282.652466,170.056793 282.565765,170.773651 
	C276.725311,170.773651 270.884857,170.773651 265.044403,170.773651 
	C265.040375,171.052872 265.036377,171.332092 265.032349,171.611313 
	C268.402863,172.075943 271.773346,172.540558 275.564453,173.008423 
z"/>
<path fill="#52D6ED" opacity="1.000000" stroke="none" 
	d="
M241.012939,156.587952 
	C236.112091,154.874237 230.974625,155.347687 227.701599,159.128845 
	C221.997101,165.718979 214.919693,168.586197 206.349304,169.836395 
	C205.991898,167.992691 205.509903,165.838837 206.109879,164.047348 
	C207.103088,161.081757 208.194687,157.626190 210.413879,155.789841 
	C211.750000,154.684219 215.298721,156.252518 218.327942,156.687363 
	C220.329056,155.896439 223.157791,154.778412 225.986526,153.660385 
	C225.888794,153.494461 225.791077,153.328552 225.693344,153.162643 
	C228.497192,151.784790 231.284500,149.337677 234.108978,149.294006 
	C237.816803,149.236664 240.989594,151.616104 241.012939,156.587952 
z"/>
<path fill="#51D3ED" opacity="1.000000" stroke="none" 
	d="
M256.096649,201.595520 
	C253.094223,201.180405 250.180115,200.369797 245.890152,199.176468 
	C254.842529,193.610260 263.510712,197.394943 271.686279,195.308792 
	C276.777313,195.519531 281.577637,196.026154 286.377930,196.532791 
	C286.392670,197.036133 286.407410,197.539474 286.422119,198.042816 
	C278.343628,198.695663 270.260925,199.302414 262.189545,200.033707 
	C260.169373,200.216751 258.185516,200.800461 256.096649,201.595520 
z"/>
<path fill="#44C4F7" opacity="1.000000" stroke="none" 
	d="
M290.068176,170.984711 
	C288.300720,170.863556 286.964081,170.742355 285.627472,170.621155 
	C285.615479,170.179749 285.603455,169.738342 285.591461,169.296951 
	C287.387207,169.203110 289.181976,169.069641 290.978912,169.026154 
	C292.929321,168.978943 294.881744,169.015442 297.001709,170.196503 
	C294.834167,170.459213 292.666595,170.721924 290.068176,170.984711 
z"/>
<path fill="#6C82F1" opacity="1.000000" stroke="none" 
	d="
M267.013367,233.682587 
	C265.975250,233.248688 264.991486,232.466965 263.988342,231.346313 
	C265.001862,231.783173 266.034790,232.558975 267.013367,233.682587 
z"/>
<path fill="#6C82F1" opacity="1.000000" stroke="none" 
	d="
M259.845398,228.713348 
	C259.354797,229.015457 259.006012,229.021759 258.396973,229.041977 
	C258.710327,228.532715 259.283875,228.009521 260.062683,227.655487 
	C260.174286,228.022278 260.080719,228.219910 259.845398,228.713348 
z"/>
<path fill="#6C82F1" opacity="1.000000" stroke="none" 
	d="
M262.960907,229.751923 
	C262.712524,229.851227 262.415131,229.678055 262.046631,229.247467 
	C262.287689,229.153183 262.599762,229.316315 262.960907,229.751923 
z"/>
<path fill="#6C82F1" opacity="1.000000" stroke="none" 
	d="
M261.934418,228.741226 
	C261.699615,228.829666 261.387756,228.635162 260.957642,228.179749 
	C261.178711,228.098663 261.518036,228.278458 261.934418,228.741226 
z"/>
<path fill="#6C82F1" opacity="1.000000" stroke="none" 
	d="
M263.953857,230.757080 
	C263.701752,230.858627 263.406494,230.686249 263.043457,230.251953 
	C263.287323,230.154404 263.598999,230.318787 263.953857,230.757080 
z"/>
<path fill="#6C82F1" opacity="1.000000" stroke="none" 
	d="
M267.969513,234.737823 
	C267.659790,234.880463 267.342743,234.733307 266.999084,234.312469 
	C267.302368,234.175217 267.632263,234.311615 267.969513,234.737823 
z"/>
<path fill="#8C55FE" opacity="1.000000" stroke="none" 
	d="
M269.154297,309.814484 
	C270.221954,309.872528 271.086456,310.175323 271.950928,310.478119 
	C271.915314,310.678131 271.879700,310.878143 271.844086,311.078156 
	C270.964996,311.024414 270.085876,310.970673 268.887878,310.742462 
	C268.696350,310.398376 268.823730,310.228790 269.154297,309.814484 
z"/>
<path fill="#8955FB" opacity="1.000000" stroke="none" 
	d="
M265.128082,275.387268 
	C265.510498,275.119568 265.964844,275.218872 266.456390,275.668884 
	C266.062378,275.931122 265.631226,275.842712 265.128082,275.387268 
z"/>
<path fill="#8955FB" opacity="1.000000" stroke="none" 
	d="
M269.185364,282.117554 
	C269.202728,281.940857 269.391113,281.967285 269.485840,281.974915 
	C269.443054,282.086456 269.305511,282.190338 269.185364,282.117554 
z"/>
<path fill="#8955FB" opacity="1.000000" stroke="none" 
	d="
M274.702454,253.186356 
	C274.808136,253.517288 274.584473,253.721344 274.061646,253.896362 
	C274.039703,253.678772 274.243256,253.409485 274.702454,253.186356 
z"/>
<path fill="#08B96D" opacity="1.000000" stroke="none" 
	d="
M283.143311,250.456833 
	C283.673920,251.036392 284.001068,251.423569 284.554596,251.924103 
	C285.384552,253.205612 285.988129,254.373749 286.913147,255.676987 
	C285.183472,257.366150 283.132385,258.920227 280.776947,260.504517 
	C280.472565,260.534760 280.158661,260.603119 280.158661,260.603119 
	C280.553070,257.390717 280.947449,254.178329 281.360321,250.539276 
	C281.899139,250.163239 282.419495,250.213852 283.143311,250.456833 
z"/>
<path fill="#8955FB" opacity="1.000000" stroke="none" 
	d="
M280.404602,260.680298 
	C280.336670,260.825867 280.220154,260.598511 280.189392,260.600830 
	C280.158661,260.603119 280.472565,260.534760 280.404602,260.680298 
z"/>
</svg>