<svg width="30" height="30" viewBox="0 0 30 30" fill="none" xmlns="http://www.w3.org/2000/svg">
<g clip-path="url(#clip0_304_1326)">
<path d="M15 2.5C21.9 2.5 27.5 8.1 27.5 15C27.5 21.9 21.9 27.5 15 27.5C8.1 27.5 2.5 21.9 2.5 15C2.5 8.1 8.1 2.5 15 2.5ZM15 5C9.475 5 5 9.475 5 15C5 20.525 9.475 25 15 25C20.525 25 25 20.525 25 15C25 9.475 20.525 5 15 5ZM15 8.75C17.275 8.75 19.2663 9.96625 20.36 11.785L18.2175 13.0712C17.8803 12.5091 17.4017 12.0451 16.8292 11.7256C16.2568 11.406 15.6107 11.2422 14.9551 11.2503C14.2996 11.2584 13.6577 11.4382 13.0934 11.7718C12.529 12.1054 12.062 12.581 11.7388 13.1514C11.4157 13.7218 11.2477 14.3669 11.2516 15.0224C11.2555 15.678 11.4312 16.321 11.7612 16.8875C12.0911 17.454 12.5638 17.924 13.1321 18.2508C13.7004 18.5776 14.3444 18.7497 15 18.75C15.6477 18.7504 16.2844 18.583 16.8481 18.264C17.4117 17.945 17.8831 17.4854 18.2162 16.93L20.36 18.215C19.6575 19.3883 18.5896 20.2987 17.3199 20.8067C16.0503 21.3147 14.649 21.3921 13.3311 21.0272C12.0132 20.6622 10.8514 19.875 10.0239 18.7863C9.19642 17.6976 8.7489 16.3675 8.75 15C8.75 11.55 11.55 8.75 15 8.75Z" fill="white"/>
</g>
<defs>
<clipPath id="clip0_304_1326">
<rect width="30" height="30" fill="white"/>
</clipPath>
</defs>
</svg>
