<svg width="56" height="56" viewBox="0 0 56 56" fill="none" xmlns="http://www.w3.org/2000/svg">
<g filter="url(#filter0_d_304_982)">
<circle cx="28" cy="27" r="18" fill="white"/>
</g>
<path d="M28 19C29.0609 19 30.0783 19.4214 30.8284 20.1716C31.5786 20.9217 32 21.9391 32 23C32 24.0609 31.5786 25.0783 30.8284 25.8284C30.0783 26.5786 29.0609 27 28 27C26.9391 27 25.9217 26.5786 25.1716 25.8284C24.4214 25.0783 24 24.0609 24 23C24 21.9391 24.4214 20.9217 25.1716 20.1716C25.9217 19.4214 26.9391 19 28 19ZM28 29C32.42 29 36 30.79 36 33V35H20V33C20 30.79 23.58 29 28 29Z" fill="black"/>
<defs>
<filter id="filter0_d_304_982" x="0" y="0" width="56" height="56" filterUnits="userSpaceOnUse" color-interpolation-filters="sRGB">
<feFlood flood-opacity="0" result="BackgroundImageFix"/>
<feColorMatrix in="SourceAlpha" type="matrix" values="0 0 0 0 0 0 0 0 0 0 0 0 0 0 0 0 0 0 127 0" result="hardAlpha"/>
<feOffset dy="1"/>
<feGaussianBlur stdDeviation="5"/>
<feColorMatrix type="matrix" values="0 0 0 0 0 0 0 0 0 0 0 0 0 0 0 0 0 0 0.1 0"/>
<feBlend mode="normal" in2="BackgroundImageFix" result="effect1_dropShadow_304_982"/>
<feBlend mode="normal" in="SourceGraphic" in2="effect1_dropShadow_304_982" result="shape"/>
</filter>
</defs>
</svg>
