<svg width="56" height="56" viewBox="0 0 56 56" fill="none" xmlns="http://www.w3.org/2000/svg">
<g filter="url(#filter0_d_304_1336)">
<circle cx="28" cy="27" r="18" fill="white"/>
</g>
<g clip-path="url(#clip0_304_1336)">
<path d="M35.698 22.242C35.1572 22.4953 34.5837 22.6616 33.9966 22.7355C34.6155 22.3436 35.0787 21.7268 35.2999 21C34.7191 21.366 34.0823 21.6225 33.4186 21.7613C32.9727 21.2562 32.3818 20.9212 31.7376 20.8084C31.0935 20.6957 30.4322 20.8114 29.8565 21.1376C29.2809 21.4638 28.8232 21.9823 28.5545 22.6124C28.2859 23.2424 28.2213 23.9488 28.371 24.6218C27.1931 24.5592 26.0408 24.2351 24.9889 23.6705C23.937 23.1059 23.009 22.3133 22.2651 21.3443C22.0018 21.8231 21.8635 22.3674 21.8642 22.9215C21.8642 24.009 22.387 24.9698 23.1817 25.5323C22.7114 25.5166 22.2514 25.3821 21.8401 25.14V25.179C21.8403 25.9033 22.077 26.6052 22.5101 27.1658C22.9432 27.7264 23.5461 28.1111 24.2166 28.2548C23.78 28.38 23.3222 28.3985 22.8778 28.3088C23.0669 28.9322 23.4353 29.4774 23.9316 29.8681C24.4278 30.2588 25.027 30.4754 25.6453 30.4875C25.0308 30.9985 24.3272 31.3762 23.5748 31.5991C22.8223 31.822 22.0357 31.8857 21.26 31.7865C22.6141 32.7086 24.1905 33.1981 25.8004 33.1965C31.2496 33.1965 34.2296 28.4168 34.2296 24.2715C34.2296 24.1365 34.2261 24 34.2204 23.8665C34.8004 23.4226 35.301 22.8728 35.6987 22.2428L35.698 22.242Z" fill="#868383"/>
</g>
<defs>
<filter id="filter0_d_304_1336" x="0" y="0" width="56" height="56" filterUnits="userSpaceOnUse" color-interpolation-filters="sRGB">
<feFlood flood-opacity="0" result="BackgroundImageFix"/>
<feColorMatrix in="SourceAlpha" type="matrix" values="0 0 0 0 0 0 0 0 0 0 0 0 0 0 0 0 0 0 127 0" result="hardAlpha"/>
<feOffset dy="1"/>
<feGaussianBlur stdDeviation="5"/>
<feColorMatrix type="matrix" values="0 0 0 0 0 0 0 0 0 0 0 0 0 0 0 0 0 0 0.1 0"/>
<feBlend mode="normal" in2="BackgroundImageFix" result="effect1_dropShadow_304_1336"/>
<feBlend mode="normal" in="SourceGraphic" in2="effect1_dropShadow_304_1336" result="shape"/>
</filter>
<clipPath id="clip0_304_1336">
<rect width="17" height="18" fill="white" transform="translate(20 18)"/>
</clipPath>
</defs>
</svg>
